<?xml version="1.0" encoding="UTF-8" standalone="no"?>
<svg width="64px" height="64px" viewBox="0 0 64 64" version="1.1" xmlns="http://www.w3.org/2000/svg" xmlns:xlink="http://www.w3.org/1999/xlink">
    <!-- Generator: Sketch 3.7.2 (28276) - http://www.bohemiancoding.com/sketch -->
    <title>avatar3</title>
    <desc>Created with Sketch.</desc>
    <defs></defs>
    <g id="Page-1" stroke="none" stroke-width="1" fill="none" fill-rule="evenodd">
        <g id="dfasd" transform="translate(-5217.000000, -3635.000000)">
            <g id="Group-39" transform="translate(5217.000000, 3635.000000)">
                <g id="Group-15" transform="translate(16.000000, -3.000000)">
                    <polyline id="Fill-57" fill="#DA2E2F" points="16.401373 11.5022332 13.6886066 11.5022332 13.6886066 14.212892 19.1121939 14.212892 19.1121939 11.5022332 16.401373 11.5022332"></polyline>
                    <polygon id="Fill-58" fill="#E4C361" points="29.9603413 38.6209804 32.6727835 38.6209804 32.6727835 33.1973931 29.9603413 33.1973931"></polygon>
                    <polygon id="Fill-59" fill="#E4C361" points="21.8259331 52.1830291 24.5369161 52.1830291 24.5369161 49.4691278 21.8259331 49.4691278"></polygon>
                    <polyline id="Fill-60" fill="#E4C361" points="13.6886066 49.4691278 10.976813 49.4691278 10.976813 52.1830291 19.1121939 52.1830291 19.1121939 49.4691278 13.6886066 49.4691278"></polyline>
                    <polygon id="Fill-61" fill="#E4C361" points="10.976813 38.6209804 16.401373 38.6209804 16.401373 25.0612015 10.976813 25.0612015"></polygon>
                    <path d="M19.1121939,33.1973931 L24.5369161,33.1973931 L24.5369161,30.4857616 L19.1121939,30.4857616 L19.1121939,33.1973931 Z M2.84062135,33.1973931 L8.26388439,33.1973931 L8.26388439,30.4857616 L2.84062135,30.4857616 L2.84062135,33.1973931 Z M29.9603413,38.6209804 L29.9603413,30.4857616 L27.2483855,30.4857616 L27.2483855,27.772833 L24.5369161,27.772833 L24.5369161,25.0612015 L16.401373,25.0612015 L16.401373,38.6209804 L10.976813,38.6209804 L10.976813,25.0612015 L0.129638348,25.0612015 L0.129638348,41.3348817 L2.84062135,41.3348817 L2.84062135,46.7573341 L5.55209074,46.7573341 L5.55209074,49.4691278 L8.26388439,49.4691278 L8.26388439,41.3348817 L21.8259331,41.3348817 L21.8259331,49.4691278 L27.2483855,49.4691278 L27.2483855,46.7573341 L29.9603413,46.7573341 L29.9603413,41.3348817 L32.6727835,41.3348817 L32.6727835,38.6209804 L29.9603413,38.6209804 L29.9603413,38.6209804 Z" id="Fill-62" fill="#FBD568"></path>
                    <polyline id="Fill-63" fill="#FBD568" points="13.6886066 46.7573341 10.976813 46.7573341 10.976813 49.4691278 19.1121939 49.4691278 19.1121939 46.7573341 13.6886066 46.7573341"></polyline>
                    <polyline id="Fill-64" fill="#9C9D9C" points="29.9603413 19.638587 29.9603413 16.9246856 27.2483855 16.9246856 27.2483855 14.212892 5.55209074 14.212892 5.55209074 16.9246856 2.84062135 16.9246856 2.84062135 19.638587 0.129638348 19.638587 0.129638348 25.0612015 24.5369161 25.0612015 24.5369161 27.772833 27.2483855 27.772833 27.2483855 30.4857616 29.9603413 30.4857616 29.9603413 33.1973931 32.6727835 33.1973931 32.6727835 19.638587 29.9603413 19.638587"></polyline>
                    <polyline id="Fill-65" fill="#9C9D9C" points="16.401373 41.3348817 8.26388439 41.3348817 8.26388439 54.8948228 10.976813 54.8948228 10.976813 44.0466754 19.1121939 44.0466754 19.1121939 54.8948228 21.8259331 54.8948228 21.8259331 41.3348817 16.401373 41.3348817"></polyline>
                    <polyline id="Fill-66" fill="#9C9D9C" points="16.401373 11.5022332 21.8259331 11.5022332 21.8259331 6.07653822 19.1121939 6.07653822 19.1121939 0.654085826 16.401373 0.654085826 16.401373 3.36474457 13.6886066 3.36474457 13.6886066 6.07653822 10.976813 6.07653822 10.976813 11.5022332 16.401373 11.5022332"></polyline>
                    <polyline id="Fill-67" fill="#EB9177" points="16.401373 44.0466754 10.976813 44.0466754 10.976813 46.7573341 19.1121939 46.7573341 19.1121939 44.0466754 16.401373 44.0466754"></polyline>
                    <polygon id="Fill-68" fill="#1A1918" points="19.1121939 33.1973931 24.5369161 33.1973931 24.5369161 30.4857616 19.1121939 30.4857616"></polygon>
                    <polygon id="Fill-69" fill="#1A1918" points="2.84062135 33.1973931 8.26388439 33.1973931 8.26388439 30.4857616 2.84062135 30.4857616"></polygon>
                </g>
            </g>
            <g id="Group-40" transform="translate(5048.000000, 3635.000000)"></g>
        </g>
    </g>
</svg>