<?xml version="1.0" encoding="UTF-8" standalone="no"?>
<svg width="64px" height="64px" viewBox="0 0 64 64" version="1.1" xmlns="http://www.w3.org/2000/svg" xmlns:xlink="http://www.w3.org/1999/xlink">
    <!-- Generator: Sketch 3.7.2 (28276) - http://www.bohemiancoding.com/sketch -->
    <title>avatar5</title>
    <desc>Created with Sketch.</desc>
    <defs></defs>
    <g id="Page-1" stroke="none" stroke-width="1" fill="none" fill-rule="evenodd">
        <g id="dfasd" transform="translate(-5133.000000, -3725.000000)">
            <g id="Group-17" transform="translate(5148.000000, 3730.000000)">
                <polyline id="Fill-22" fill="#BF665D" points="19.0000484 38.6843418 16.2893897 38.6843418 16.2893897 41.3959733 21.7118421 41.3959733 21.7118421 38.6843418 19.0000484 38.6843418"></polyline>
                <polygon id="Fill-23" fill="#69422A" points="29.848358 35.9714133 32.5609623 35.9714133 32.5609623 30.547826 29.848358 30.547826"></polygon>
                <polyline id="Fill-24" fill="#69422A" points="19.0000484 44.107767 8.15206317 44.107767 8.15206317 46.8195607 24.4237979 46.8195607 24.4237979 44.107767 19.0000484 44.107767"></polyline>
                <polyline id="Fill-25" fill="#69422A" points="13.5754883 35.9714133 16.2893897 35.9714133 16.2893897 33.2597817 19.0000484 33.2597817 19.0000484 30.547826 16.2893897 30.547826 16.2893897 19.6996786 10.8646675 19.6996786 10.8646675 30.547826 8.15206317 30.547826 8.15206317 33.2597817 10.8646675 33.2597817 10.8646675 35.9714133 13.5754883 35.9714133"></polyline>
                <path d="M21.7118421,27.8361944 L24.4237979,27.8361944 L24.4237979,25.1232659 L21.7118421,25.1232659 L21.7118421,27.8361944 Z M19.0000484,41.3959733 L16.2893897,41.3959733 L16.2893897,38.6843418 L21.7118421,38.6843418 L21.7118421,41.3959733 L19.0000484,41.3959733 L19.0000484,41.3959733 Z M2.72734096,27.8361944 L5.44010739,27.8361944 L5.44010739,25.1232659 L2.72734096,25.1232659 L2.72734096,27.8361944 Z M27.1364022,22.4114722 L27.1364022,19.6996786 L16.2893897,19.6996786 L16.2893897,30.547826 L19.0000484,30.547826 L19.0000484,33.2597817 L16.2893897,33.2597817 L16.2893897,35.9714133 L10.8646675,35.9714133 L10.8646675,33.2597817 L8.15206317,33.2597817 L8.15206317,30.547826 L10.8646675,30.547826 L10.8646675,19.6996786 L0.0155473043,19.6996786 L0.0155473043,35.9714133 L2.72734096,35.9714133 L2.72734096,41.3959733 L5.44010739,41.3959733 L5.44010739,44.107767 L27.1364022,44.107767 L27.1364022,41.3959733 L29.848358,41.3959733 L29.848358,25.1232659 L27.1364022,25.1232659 L27.1364022,22.4114722 L27.1364022,22.4114722 Z" id="Fill-26" fill="#7A4C32"></path>
                <polyline id="Fill-27" fill="#1A1918" points="29.848358 3.42697109 5.44010739 3.42697109 5.44010739 0.715339565 0.0155473043 0.715339565 0.0155473043 19.6996786 27.1364022 19.6996786 27.1364022 25.1232659 29.848358 25.1232659 29.848358 30.547826 32.5609623 30.547826 32.5609623 6.13989965 29.848358 6.13989965 29.848358 3.42697109"></polyline>
                <polygon id="Fill-28" fill="#1A1918" points="21.7118421 27.8361944 24.4237979 27.8361944 24.4237979 25.1232659 21.7118421 25.1232659"></polygon>
                <polygon id="Fill-29" fill="#1A1918" points="2.72734096 27.8361944 5.44010739 27.8361944 5.44010739 25.1232659 2.72734096 25.1232659"></polygon>
            </g>
            <g id="Group-40" transform="translate(5048.000000, 3635.000000)"></g>
        </g>
    </g>
</svg>