<?xml version="1.0" encoding="UTF-8" standalone="no"?>
<svg width="64px" height="64px" viewBox="0 0 64 64" version="1.1" xmlns="http://www.w3.org/2000/svg" xmlns:xlink="http://www.w3.org/1999/xlink">
    <!-- Generator: Sketch 3.7.2 (28276) - http://www.bohemiancoding.com/sketch -->
    <title>avatar7</title>
    <desc>Created with Sketch.</desc>
    <defs></defs>
    <g id="Page-1" stroke="none" stroke-width="1" fill="none" fill-rule="evenodd">
        <g id="dfasd" transform="translate(-5310.000000, -3725.000000)">
            <g id="Group-19" transform="translate(5325.000000, 3738.000000)">
                <polygon id="Fill-166" fill="#74B943" points="14 11 33 11 33 8 14 8"></polygon>
                <polyline id="Fill-167" fill="#EB9177" points="16.3354594 32 16.3354594 29.4999253 19 29.4999253 19 27 11 27 11 32 16.3354594 32"></polyline>
                <polygon id="Fill-168" fill="#74B943" points="5 11 13 11 13 8 5 8"></polygon>
                <polygon id="Fill-169" fill="#ECC982" points="30 22 33 22 33 19 30 19"></polygon>
                <polygon id="Fill-170" fill="#ECC982" points="30 8 33 8 33 5 30 5"></polygon>
                <polygon id="Fill-171" fill="#ECC982" points="27 17 30 17 30 14 27 14"></polygon>
                <polygon id="Fill-172" fill="#ECC982" points="22 3 25 3 25 0 22 0"></polygon>
                <polyline id="Fill-173" fill="#ECC982" points="18.6661353 35 8 35 8 38 24 38 24 35 18.6661353 35"></polyline>
                <polygon id="Fill-174" fill="#ECC982" points="19 8 22 8 22 5 19 5"></polygon>
                <polygon id="Fill-175" fill="#ECC982" points="14 6 17 6 17 3 14 3"></polygon>
                <polyline id="Fill-176" fill="#ECC982" points="11 16.7517262 11 25 16 25 16 14 11 14 11 16.7517262"></polyline>
                <polygon id="Fill-177" fill="#ECC982" points="8 3 11 3 11 0 8 0"></polygon>
                <polygon id="Fill-178" fill="#ECC982" points="5 8 8 8 8 5 5 5"></polygon>
                <polygon id="Fill-179" fill="#74B943" points="3 11 6 11 6 8 3 8"></polygon>
                <polygon id="Fill-180" fill="#1A1918" points="22 19 25 19 25 16 22 16"></polygon>
                <polygon id="Fill-181" fill="#1A1918" points="3 19 6 19 6 16 3 16"></polygon>
                <polyline id="Fill-182" fill="#FFFFFF" points="27.499178 11 0 11 0 14 33 14 33 11 27.499178 11"></polyline>
                <polygon id="Fill-183" fill="#74B943" points="0 11 3 11 3 8 0 8"></polygon>
                <path d="M13.748767,33.250411 L11,33.250411 L11,27.7507398 L19.247945,27.7507398 L19.247945,30.5004932 L16.500822,30.5004932 L16.500822,33.250411 L13.748767,33.250411 L13.748767,33.250411 Z M2.748767,19.501644 L5.499178,19.501644 L5.499178,16.7517262 L2.748767,16.7517262 L2.748767,19.501644 Z M22,19.501644 L24.748767,19.501644 L24.748767,16.7517262 L22,16.7517262 L22,19.501644 Z M30.249589,14 L30.249589,16.7517262 L27.499178,16.7517262 L27.499178,14 L16.500822,14 L16.500822,25 L11,25 L11,14 L0,14 L0,27.7507398 L2.748767,27.7507398 L2.748767,33.250411 L5.499178,33.250411 L5.499178,36 L27.499178,36 L27.499178,33.250411 L30.249589,33.250411 L30.249589,27.7507398 L33,27.7507398 L33,22.2500822 L30.249589,22.2500822 L30.249589,19.501644 L33,19.501644 L33,14 L30.249589,14 L30.249589,14 Z" id="Fill-184" fill="#FBD589"></path>
                <path d="M13.6353261,5.33402403 L16.3646739,5.33402403 L16.3646739,2.66597597 L13.6353261,2.66597597 L13.6353261,5.33402403 Z M5.45380435,8 L5.45380435,5.33402403 L8.1798913,5.33402403 L8.1798913,8 L19.0891304,8 L19.0891304,5.33402403 L21.8184783,5.33402403 L21.8184783,8 L30,8 L30,2.66597597 L27.2722826,2.66597597 L27.2722826,0 L24.5445652,0 L24.5445652,2.66597597 L21.8184783,2.66597597 L21.8184783,0 L10.9092391,0 L10.9092391,2.66597597 L8.1798913,2.66597597 L8.1798913,0 L5.45380435,0 L5.45380435,2.66597597 L2.72608696,2.66597597 L2.72608696,5.33402403 L0,5.33402403 L0,8 L5.45380435,8 L5.45380435,8 Z" id="Fill-185" fill="#FBD589"></path>
            </g>
            <g id="Group-40" transform="translate(5048.000000, 3635.000000)"></g>
        </g>
    </g>
</svg>