<?xml version="1.0" encoding="UTF-8" standalone="no"?>
<svg width="64px" height="64px" viewBox="0 0 64 64" version="1.1" xmlns="http://www.w3.org/2000/svg" xmlns:xlink="http://www.w3.org/1999/xlink">
    <!-- Generator: Sketch 3.7.2 (28276) - http://www.bohemiancoding.com/sketch -->
    <title>avatar21</title>
    <desc>Created with Sketch.</desc>
    <defs></defs>
    <g id="Page-1" stroke="none" stroke-width="1" fill="none" fill-rule="evenodd">
        <g id="dfasd" transform="translate(-5650.000000, -3886.000000)">
            <g id="Group-32" transform="translate(5665.000000, 3901.000000)">
                <polyline id="Fill-57" fill="#9C9D9C" points="32.4996797 29.9993595 32.4996797 12.4986122 29.9993595 12.4986122 29.9993595 5.00064051 27.5005338 5.00064051 27.5005338 2.49882574 22.4998932 2.49882574 22.4998932 0 5.00064051 0 5.00064051 2.49882574 2.50032025 2.49882574 2.50032025 5.00064051 0 5.00064051 0 9.9997865 27.5005338 9.9997865 27.5005338 15.000427 29.9993595 15.000427 29.9993595 25.0002135 27.5005338 25.0002135 27.5005338 29.9993595 25.0002135 29.9993595 25.0002135 32.4981852 22.4998932 32.4981852 22.4998932 35 35 35 35 29.9993595 32.4996797 29.9993595"></polyline>
                <polyline id="Fill-58" fill="#9C9D9C" points="4.66666667 29.9992527 2.33333333 29.9992527 2.33333333 25 0 25 0 35 7 35 7 32.4981318 4.66666667 32.4981318 4.66666667 29.9992527"></polyline>
                <polyline id="Fill-59" fill="#E4C361" points="19.4995018 33 7 33 7 35 22 35 22 33 19.4995018 33"></polyline>
                <polyline id="Fill-60" fill="#E4C361" points="17 25 17 19.9995018 14.5 19.9995018 14.5 10 12 10 12 25 17 25"></polyline>
                <path d="M20,17.3333333 L25.0007473,17.3333333 L25.0007473,14.8898632 L20,14.8898632 L20,17.3333333 Z M2.50037364,17.3333333 L7.50112091,17.3333333 L7.50112091,14.8898632 L2.50037364,14.8898632 L2.50037364,17.3333333 Z M27.5011209,14.8898632 L27.5011209,10 L15.0007473,10 L15.0007473,19.7782649 L17.5011209,19.7782649 L17.5011209,24.6681281 L12.5003736,24.6681281 L12.5003736,10 L0,10 L0,24.6681281 L2.50037364,24.6681281 L2.50037364,29.5565298 L5.00074727,29.5565298 L5.00074727,32 L15.0007473,32 L15.0007473,29.5565298 L12.5003736,29.5565298 L12.5003736,27.1130597 L20,27.1130597 L20,32 L25.0007473,32 L25.0007473,29.5565298 L27.5011209,29.5565298 L27.5011209,24.6681281 L30,24.6681281 L30,14.8898632 L27.5011209,14.8898632 L27.5011209,14.8898632 Z" id="Fill-61" fill="#FBD568"></path>
                <polyline id="Fill-62" fill="#EB9177" points="16.6675967 28 12 28 12 30.5 14.3337983 30.5 14.3337983 33 19 33 19 28 16.6675967 28"></polyline>
                <polygon id="Fill-63" fill="#1A1918" points="20 17 25 17 25 15 20 15"></polygon>
                <polygon id="Fill-64" fill="#1A1918" points="2 17 7 17 7 15 2 15"></polygon>
            </g>
            <g id="Group-40" transform="translate(5048.000000, 3635.000000)"></g>
        </g>
    </g>
</svg>