<?xml version="1.0" encoding="UTF-8" standalone="no"?>
<svg width="64px" height="64px" viewBox="0 0 64 64" version="1.1" xmlns="http://www.w3.org/2000/svg" xmlns:xlink="http://www.w3.org/1999/xlink">
    <!-- Generator: Sketch 3.7.2 (28276) - http://www.bohemiancoding.com/sketch -->
    <title>avatar1</title>
    <desc>Created with Sketch.</desc>
    <defs></defs>
    <g id="Page-1" stroke="none" stroke-width="1" fill="none" fill-rule="evenodd">
        <g id="dfasd" transform="translate(-5048.000000, -3635.000000)">
            <g id="Group-37" transform="translate(5048.000000, 3635.000000)">
                <g id="Group-38">
                    <g id="Group-13" transform="translate(16.000000, -2.000000)">
                        <polygon id="Fill-30" fill="#7EBD55" points="30.111256 41.5515318 32.8230497 41.5515318 32.8230497 38.8268491 30.111256 38.8268491"></polygon>
                        <polygon id="Fill-31" fill="#B2B3B2" points="30.111256 38.8268491 32.8230497 38.8268491 32.8230497 36.1020035 30.111256 36.1020035"></polygon>
                        <polyline id="Fill-32" fill="#E0C88E" points="30.111256 33.3782983 30.111256 36.1020035 32.8230497 36.1020035 32.8230497 30.6513348 30.111256 30.6513348 30.111256 33.3782983"></polyline>
                        <polyline id="Fill-33" fill="#E0C88E" points="19.2640814 49.7283493 8.41496126 49.7283493 8.41496126 52.4520546 24.686696 52.4520546 24.686696 49.7283493 19.2640814 49.7283493"></polyline>
                        <polyline id="Fill-34" fill="#E0C88E" points="16.5505043 38.8268491 16.5505043 30.6513348 13.8395213 30.6513348 13.8395213 25.2016436 11.1267549 25.2016436 11.1267549 38.8268491 16.5505043 38.8268491"></polyline>
                        <polyline id="Fill-35" fill="#55C2E4" points="16.5505043 14.3012837 16.5505043 8.85273292 13.8395213 8.85273292 13.8395213 0.67607827 11.1267549 0.67607827 11.1267549 14.3012837 8.41496126 14.3012837 8.41496126 19.7530928 16.5505043 19.7530928 16.5505043 17.0284101 19.2640814 17.0284101 19.2640814 14.3012837 16.5505043 14.3012837"></polyline>
                        <path d="M2.99040117,30.6513348 L5.70219483,30.6513348 L5.70219483,27.9266521 L2.99040117,27.9266521 L2.99040117,30.6513348 Z M8.41496126,44.2776807 L13.8395213,44.2776807 L13.8395213,41.5515318 L8.41496126,41.5515318 L8.41496126,44.2776807 Z M13.8395213,27.9266521 L13.8395213,30.6513348 L16.5505043,30.6513348 L16.5505043,38.8268491 L11.1267549,38.8268491 L11.1267549,25.2016436 L13.8395213,25.2016436 L13.8395213,27.9266521 L13.8395213,27.9266521 Z M21.9750644,30.6513348 L24.686696,30.6513348 L24.686696,27.9266521 L21.9750644,27.9266521 L21.9750644,30.6513348 Z M30.111256,19.7530928 L27.3984896,19.7530928 L27.3984896,17.0284101 L16.5505043,17.0284101 L16.5505043,19.7530928 L8.41496126,19.7530928 L8.41496126,17.0284101 L5.70219483,17.0284101 L5.70219483,19.7530928 L2.99040117,19.7530928 L2.99040117,22.476798 L0.278931783,22.476798 L0.278931783,41.5515318 L2.99040117,41.5515318 L2.99040117,47.0023634 L5.70219483,47.0023634 L5.70219483,49.7283493 L27.3984896,49.7283493 L27.3984896,47.0023634 L30.111256,47.0023634 L30.111256,30.6513348 L32.8230497,30.6513348 L32.8230497,22.476798 L30.111256,22.476798 L30.111256,19.7530928 L30.111256,19.7530928 Z" id="Fill-36" fill="#F1D798"></path>
                        <polygon id="Fill-37" fill="#EB9177" points="8.41496126 44.2776807 13.8395213 44.2776807 13.8395213 41.5515318 8.41496126 41.5515318"></polygon>
                        <polygon id="Fill-38" fill="#1A1918" points="21.9750644 30.6513348 24.686696 30.6513348 24.686696 27.9266521 21.9750644 27.9266521"></polygon>
                        <polygon id="Fill-39" fill="#1A1918" points="2.99040117 30.6513348 5.70219483 30.6513348 5.70219483 27.9266521 2.99040117 27.9266521"></polygon>
                    </g>
                </g>
            </g>
            <g id="Group-40" transform="translate(5048.000000, 3635.000000)"></g>
        </g>
    </g>
</svg>