<?xml version="1.0" encoding="UTF-8" standalone="no"?>
<svg width="64px" height="64px" viewBox="0 0 64 64" version="1.1" xmlns="http://www.w3.org/2000/svg" xmlns:xlink="http://www.w3.org/1999/xlink">
    <!-- Generator: Sketch 3.7.2 (28276) - http://www.bohemiancoding.com/sketch -->
    <title>avatar10</title>
    <desc>Created with Sketch.</desc>
    <defs></defs>
    <g id="Page-1" stroke="none" stroke-width="1" fill="none" fill-rule="evenodd">
        <g id="dfasd" transform="translate(-5048.000000, -3886.000000)">
            <g id="Group-25" transform="translate(5064.000000, 3894.000000)">
                <polygon id="Fill-120" fill="#DB3B35" points="11 22 14 22 14 19 11 19"></polygon>
                <polygon id="Fill-121" fill="#A86F29" points="30 32 33 32 33 27 30 27"></polygon>
                <polyline id="Fill-122" fill="#A86F29" points="18.6659758 44 8 44 8 47 24 47 24 44 18.6659758 44"></polyline>
                <polyline id="Fill-123" fill="#A86F29" points="14 30.249589 14 22 11 22 11 33 14 33 14 30.249589"></polyline>
                <polygon id="Fill-124" fill="#A86F29" points="11 19 14 19 14 16 11 16"></polygon>
                <path d="M19.250274,26.7987087 L22.0000548,26.7987087 L22.0000548,24.0982244 L19.250274,24.0982244 L19.250274,26.7987087 Z M8.25131521,37.6006457 L16.5003288,37.6006457 L16.5003288,34.8985473 L8.25131521,34.8985473 L8.25131521,37.6006457 Z M2.75076721,26.7987087 L5.50054801,26.7987087 L5.50054801,24.0982244 L2.75076721,24.0982244 L2.75076721,26.7987087 Z M30.25137,32.1996772 L30.25137,24.0982244 L27.5007672,24.0982244 L27.5007672,21.3993543 L24.750822,21.3993543 L24.750822,18.6988701 L22.0000548,18.6988701 L22.0000548,16 L13.7518632,16 L13.7518632,32.1996772 L10.9997808,32.1996772 L10.9997808,16 L5.50054801,16 L5.50054801,18.6988701 L2.75076721,18.6988701 L2.75076721,21.3993543 L0,21.3993543 L0,34.8985473 L2.75076721,34.8985473 L2.75076721,40.2995158 L5.50054801,40.2995158 L5.50054801,43 L27.5007672,43 L27.5007672,40.2995158 L30.25137,40.2995158 L30.25137,34.8985473 L33,34.8985473 L33,32.1996772 L30.25137,32.1996772 L30.25137,32.1996772 Z" id="Fill-125" fill="#B6782C"></path>
                <polygon id="Fill-126" fill="#E7E7E6" points="30 25 33 25 33 22 30 22"></polygon>
                <polyline id="Fill-127" fill="#E7E7E6" points="30.25137 14.247945 30.25137 11.499178 19.250274 11.499178 19.250274 8.748767 10.9997808 8.748767 10.9997808 6 2.75076721 6 2.75076721 8.748767 8.25131521 8.748767 8.25131521 11.499178 16.5003288 11.499178 16.5003288 14.247945 0 14.247945 0 17 19.250274 17 19.250274 14.247945 27.5007672 14.247945 27.5007672 17 33 17 33 14.247945 30.25137 14.247945"></polyline>
                <polyline id="Fill-128" fill="#E7E7E6" points="16.6001339 5 19.3998661 5 19.3998661 2.49850568 25 2.49850568 25 0 16.6001339 0 16.6001339 2.49850568 11 2.49850568 11 5 16.6001339 5"></polyline>
                <polyline id="Fill-129" fill="#EB9177" points="10.6654974 35 8 35 8 38 16 38 16 35 10.6654974 35"></polyline>
                <polygon id="Fill-130" fill="#1A1918" points="19 28 22 28 22 25 19 25"></polygon>
                <polygon id="Fill-131" fill="#1A1918" points="3 28 6 28 6 25 3 25"></polygon>
                <polygon id="Fill-132" fill="#FFFFFF" points="30 28 33 28 33 25 30 25"></polygon>
                <polyline id="Fill-133" fill="#FFFFFF" points="27.4006696 16.752055 27.4006696 14 19 14 19 16.752055 21.7998326 16.752055 21.7998326 19.500822 24.6006696 19.500822 24.6006696 22.251233 27.4006696 22.251233 27.4006696 25 30.2013392 25 30.2013392 22.251233 33 22.251233 33 16.752055 27.4006696 16.752055"></polyline>
                <polyline id="Fill-134" fill="#FFFFFF" points="30.2513974 3 19.250411 3 19.250411 5.752055 11 5.752055 11 8.500822 19.250411 8.500822 19.250411 11.251233 30.2513974 11.251233 30.2513974 14 33 14 33 5.752055 30.2513974 5.752055 30.2513974 3"></polyline>
                <polyline id="Fill-135" fill="#FFFFFF" points="14.2014731 2.49850568 17 2.49850568 17 0 5.79986608 0 5.79986608 2.49850568 3 2.49850568 3 5 11.3992635 5 11.3992635 2.49850568 14.2014731 2.49850568"></polyline>
                <polyline id="Fill-136" fill="#FFFFFF" points="0 16 0 21 2.50044832 21 2.50044832 18.4992526 5 18.4992526 5 16 0 16"></polyline>
                <polyline id="Fill-137" fill="#FFFFFF" points="0 8.66613514 0 14 16 14 16 11.3338649 8.00111592 11.3338649 8.00111592 8.66613514 2.66735747 8.66613514 2.66735747 6 0 6 0 8.66613514"></polyline>
            </g>
            <g id="Group-40" transform="translate(5048.000000, 3635.000000)"></g>
        </g>
    </g>
</svg>