<?xml version="1.0" encoding="UTF-8" standalone="no"?>
<svg width="64px" height="64px" viewBox="0 0 64 64" version="1.1" xmlns="http://www.w3.org/2000/svg" xmlns:xlink="http://www.w3.org/1999/xlink">
    <!-- Generator: Sketch 3.7.2 (28276) - http://www.bohemiancoding.com/sketch -->
    <title>avatar8</title>
    <desc>Created with Sketch.</desc>
    <defs></defs>
    <g id="Page-1" stroke="none" stroke-width="1" fill="none" fill-rule="evenodd">
        <g id="dfasd" transform="translate(-5048.000000, -3805.000000)">
            <g id="Group-20" transform="translate(5064.000000, 3818.000000)">
                <polyline id="Fill-14" fill="#96C53E" points="30.2502192 2.66842021 30.2502192 0 27.499452 0 27.499452 2.66842021 24.7496712 2.66842021 24.7496712 0 22.0000548 0 22.0000548 2.66842021 19.251096 2.66842021 19.251096 0 16.4995068 0 16.4995068 2.66842021 13.750548 2.66842021 13.750548 0 10.9997808 0 10.9997808 2.66842021 8.25 2.66842021 8.25 0 5.49923279 0 5.49923279 2.66842021 2.74945199 2.66842021 2.74945199 0 0 0 0 10.6663478 27.499452 10.6663478 27.499452 13.3336522 30.2502192 13.3336522 30.2502192 16 33 16 33 2.66842021 30.2502192 2.66842021"></polyline>
                <polyline id="Fill-15" fill="#E0C88E" points="33 18.5010463 33 16 30 16 30 21 33 21 33 18.5010463"></polyline>
                <polygon id="Fill-16" fill="#E0C88E" points="11 25 16 25 16 11 11 11"></polygon>
                <polyline id="Fill-17" fill="#E0C88E" points="13.333971 38 24 38 24 35 8 35 8 38 13.333971 38"></polyline>
                <polyline id="Fill-18" fill="#E77E62" points="21.3336522 27 8 27 8 29.4997011 10.6665072 29.4997011 10.6665072 32 24 32 24 27 21.3336522 27"></polyline>
                <path d="M2.74945199,19.0010096 L5.49923279,19.0010096 L5.49923279,16.3335813 L2.74945199,16.3335813 L2.74945199,19.0010096 Z M13.750548,26.9997875 L24.7496712,26.9997875 L24.7496712,32.3330499 L10.9997808,32.3330499 L10.9997808,29.6660999 L8.25,29.6660999 L8.25,26.9997875 L13.750548,26.9997875 L13.750548,26.9997875 Z M22.0000548,19.0010096 L24.7496712,19.0010096 L24.7496712,16.3335813 L22.0000548,16.3335813 L22.0000548,19.0010096 Z M2.74945199,29.6660999 L2.74945199,32.3330499 L5.49923279,32.3330499 L5.49923279,35 L27.499452,35 L27.499452,32.3330499 L30.2502192,32.3330499 L30.2502192,26.9997875 L33,26.9997875 L33,21.6662061 L30.2502192,21.6662061 L30.2502192,13.6672689 L27.499452,13.6672689 L27.499452,11 L16.4995068,11 L16.4995068,24.3345909 L10.9997808,24.3345909 L10.9997808,11 L0,11 L0,26.9997875 L2.74945199,26.9997875 L2.74945199,29.6660999 L2.74945199,29.6660999 Z" id="Fill-19" fill="#F1D798"></path>
                <polygon id="Fill-20" fill="#1A1918" points="22 19 25 19 25 16 22 16"></polygon>
                <polygon id="Fill-21" fill="#1A1918" points="3 19 6 19 6 16 3 16"></polygon>
            </g>
            <g id="Group-40" transform="translate(5048.000000, 3635.000000)"></g>
        </g>
    </g>
</svg>