<?xml version="1.0" encoding="UTF-8" standalone="no"?>
<svg width="64px" height="64px" viewBox="0 0 64 64" version="1.1" xmlns="http://www.w3.org/2000/svg" xmlns:xlink="http://www.w3.org/1999/xlink">
    <!-- Generator: Sketch 3.7.2 (28276) - http://www.bohemiancoding.com/sketch -->
    <title>avatar16</title>
    <desc>Created with Sketch.</desc>
    <defs></defs>
    <g id="Page-1" stroke="none" stroke-width="1" fill="none" fill-rule="evenodd">
        <g id="dfasd" transform="translate(-5480.000000, -3805.000000)">
            <g id="Group-35" transform="translate(5495.000000, 3818.000000)">
                <polyline id="Fill-74" fill="#E0C88E" points="22.5002989 35 10 35 10 37 25 37 25 35 22.5002989 35"></polyline>
                <polygon id="Fill-75" fill="#E0C88E" points="13 20 18 20 18 15 13 15"></polygon>
                <polygon id="Fill-76" fill="#E0C88E" points="13 12 18 12 18 10 13 10"></polygon>
                <path d="M20.4997634,27.5015693 L25.5003363,27.5015693 L25.5003363,24.9997011 L20.4997634,24.9997011 L20.4997634,27.5015693 Z M30.4995641,15 L25.5003363,15 L25.5003363,17.5006725 L20.4997634,17.5006725 L20.4997634,15 L17.9997758,15 L17.9997758,20.0004484 L13.0002491,20.0004484 L13.0002491,15 L10.4995143,15 L10.4995143,17.5006725 L5.49998755,17.5006725 L5.49998755,15 L3,15 L3,27.5015693 L5.49998755,27.5015693 L5.49998755,32.5000747 L7.99952672,32.5000747 L7.99952672,35 L28.0001744,35 L28.0001744,32.5000747 L30.4995641,32.5000747 L30.4995641,27.5015693 L33,27.5015693 L33,15 L30.4995641,15 L30.4995641,15 Z" id="Fill-77" fill="#F1D798"></path>
                <polyline id="Fill-78" fill="#F1D798" points="22.8007748 12 30 12 30 10 18 10 18 12 22.8007748 12"></polyline>
                <polyline id="Fill-79" fill="#F1D798" points="9.66606221 12 12 12 12 10 5 10 5 12 9.66606221 12"></polyline>
                <polygon id="Fill-80" fill="#DE4447" points="20 27 25 27 25 25 20 25"></polygon>
                <polyline id="Fill-81" fill="#FFFFFF" points="32.499589 20.4996637 32.499589 28.0004483 29.999178 28.0004483 29.999178 32.9987297 27.4998132 32.9987297 27.4998132 35.4985429 25 35.4985429 25 38 35 38 35 18 32.499589 18 32.499589 20.4996637"></polyline>
                <polyline id="Fill-82" fill="#FFFFFF" points="32.499637 7.50089681 29.9992741 7.50089681 29.9992741 4.99895372 27.4999573 4.99895372 27.4999573 2.49895372 25.0001922 2.49895372 25.0001922 0 2.50051241 0 2.50051241 2.49895372 0 2.49895372 0 7.50089681 2.50051241 7.50089681 2.50051241 12.5 5.00042701 12.5 5.00042701 10.0010463 29.9992741 10.0010463 29.9992741 12.5 32.499637 12.5 32.499637 15 35 15 35 10.0010463 32.499637 10.0010463 32.499637 7.50089681"></polyline>
                <polyline id="Fill-83" fill="#FFFFFF" points="7.66652716 32.9985055 5.33347284 32.9985055 5.33347284 28 3 28 3 38 10 38 10 35.4984307 7.66652716 35.4984307 7.66652716 32.9985055"></polyline>
                <polygon id="Fill-84" fill="#1A1918" points="33 17 35 17 35 15 33 15"></polygon>
                <polyline id="Fill-85" fill="#1A1918" points="30.4995641 13 3 13 3 15.4995517 5.49998755 15.4995517 5.49998755 18 10.4995143 18 10.4995143 15.4995517 20.4997634 15.4995517 20.4997634 18 25.5003363 18 25.5003363 15.4995517 33 15.4995517 33 13 30.4995641 13"></polyline>
            </g>
            <g id="Group-40" transform="translate(5048.000000, 3635.000000)"></g>
        </g>
    </g>
</svg>