<?xml version="1.0" encoding="UTF-8" standalone="no"?>
<svg width="64px" height="64px" viewBox="0 0 64 64" version="1.1" xmlns="http://www.w3.org/2000/svg" xmlns:xlink="http://www.w3.org/1999/xlink">
    <!-- Generator: Sketch 3.7.2 (28276) - http://www.bohemiancoding.com/sketch -->
    <title>avatar14</title>
    <desc>Created with Sketch.</desc>
    <defs></defs>
    <g id="Page-1" stroke="none" stroke-width="1" fill="none" fill-rule="evenodd">
        <g id="dfasd" transform="translate(-5480.000000, -3635.000000)">
            <g id="Group-27" transform="translate(5492.000000, 3648.000000)">
                <polygon id="Fill-86" fill="#E4C361" points="35 27 37 27 37 25 35 25"></polygon>
                <polyline id="Fill-87" fill="#E4C361" points="25.0001495 35 15 35 15 37 30 37 30 35 25.0001495 35"></polyline>
                <polygon id="Fill-88" fill="#E4C361" points="17 25 22 25 22 13 17 13"></polygon>
                <path d="M24.1818048,20.3327975 L29.0905356,20.3327975 L29.0905356,17.8894085 L24.1818048,17.8894085 L24.1818048,20.3327975 Z M24.1818048,32.5558803 L21.7266324,32.5558803 L21.7266324,27.6663257 L26.6362436,27.6663257 L26.6362436,32.5558803 L24.1818048,32.5558803 L24.1818048,32.5558803 Z M9.45443874,20.3327975 L14.3639032,20.3327975 L14.3639032,17.8894085 L9.45443874,17.8894085 L9.45443874,20.3327975 Z M31.5448276,15.4452888 L29.0905356,15.4452888 L29.0905356,13 L21.7266324,13 L21.7266324,25.2229367 L16.8183419,25.2229367 L16.8183419,13 L7,13 L7,27.6663257 L9.45443874,27.6663257 L9.45443874,32.5558803 L11.9088775,32.5558803 L11.9088775,35 L31.5448276,35 L31.5448276,32.5558803 L34,32.5558803 L34,17.8894085 L31.5448276,17.8894085 L31.5448276,15.4452888 L31.5448276,15.4452888 Z" id="Fill-89" fill="#FBD568"></path>
                <polyline id="Fill-90" fill="#E678A5" points="34.5334415 10.4989537 9.8666765 10.4989537 9.8666765 8 2.46641107 8 2.46641107 10.4989537 0 10.4989537 0 13 37 13 37 10.4989537 34.5334415 10.4989537"></polyline>
                <polygon id="Fill-91" fill="#EB9177" points="22 33 27 33 27 28 22 28"></polygon>
                <polyline id="Fill-92" fill="#FFFFFF" points="34.5455613 8 10 8 10 10 37 10 37 8 34.5455613 8"></polyline>
                <polyline id="Fill-93" fill="#1A1918" points="37.5005978 30.4997758 37.5005978 28 35.0005978 28 35.0005978 33.0005978 32.4998505 33.0005978 32.4998505 35.5002242 30 35.5002242 30 38 37.5005978 38 37.5005978 35.5002242 40 35.5002242 40 33.0005978 37.5005978 33.0005978 37.5005978 30.4997758"></polyline>
                <polyline id="Fill-94" fill="#1A1918" points="34.6668526 22.6004591 34.6668526 25 37 25 37 13 30 13 30 15.4006887 32.3330079 15.4006887 32.3330079 17.8002296 34.6668526 17.8002296 34.6668526 22.6004591"></polyline>
                <polygon id="Fill-95" fill="#1A1918" points="25 20 30 20 30 18 25 18"></polygon>
                <polygon id="Fill-96" fill="#1A1918" points="10 20 15 20 15 18 10 18"></polygon>
                <polyline id="Fill-97" fill="#1A1918" points="11.9088775 7 34 7 34 4.66638773 29.0905356 4.66638773 29.0905356 2.33444909 24.1818048 2.33444909 24.1818048 0 11.9088775 0 11.9088775 2.33444909 9.45443874 2.33444909 9.45443874 4.66638773 7 4.66638773 7 7 11.9088775 7"></polyline>
                <polyline id="Fill-98" fill="#1A1918" points="7.49973846 38 15 38 15 35.5002242 12.4995143 35.5002242 12.4995143 33.0005978 9.99962637 33.0005978 9.99962637 28 7.49973846 28 7.49973846 33.0005978 5 33.0005978 5 35.5002242 7.49973846 35.5002242 7.49973846 38"></polyline>
            </g>
            <g id="Group-40" transform="translate(5048.000000, 3635.000000)"></g>
        </g>
    </g>
</svg>