<?xml version="1.0" encoding="UTF-8" standalone="no"?>
<svg width="64px" height="64px" viewBox="0 0 64 64" version="1.1" xmlns="http://www.w3.org/2000/svg" xmlns:xlink="http://www.w3.org/1999/xlink">
    <!-- Generator: Sketch 3.7.2 (28276) - http://www.bohemiancoding.com/sketch -->
    <title>avatar9</title>
    <desc>Created with Sketch.</desc>
    <defs></defs>
    <g id="Page-1" stroke="none" stroke-width="1" fill="none" fill-rule="evenodd">
        <g id="dfasd" transform="translate(-5133.000000, -3805.000000)">
            <g id="Group-21" transform="translate(5148.000000, 3819.000000)">
                <polygon id="Fill-186" fill="#65AB40" points="22 27 25 27 25 24 22 24"></polygon>
                <polyline id="Fill-187" fill="#65AB40" points="18.6662416 34.4992531 16.0008768 34.4992531 16.0008768 32 13.333599 32 13.333599 34.4992531 8 34.4992531 8 37 24 37 24 34.4992531 18.6662416 34.4992531"></polyline>
                <polyline id="Fill-188" fill="#65AB40" points="17 24.2991607 17 0 14 0 14 27 17 27 17 24.2991607"></polyline>
                <polygon id="Fill-189" fill="#65AB40" points="5 27 8 27 8 24 5 24"></polygon>
                <polyline id="Fill-190" fill="#1A1918" points="24.499701 18.3345555 27 18.3345555 27 13 22 13 22 21 24.499701 21 24.499701 18.3345555"></polyline>
                <polyline id="Fill-191" fill="#1A1918" points="16.3342899 32 19 32 19 27 11 27 11 32 16.3342899 32"></polyline>
                <polyline id="Fill-192" fill="#1A1918" points="5.5 21 8 21 8 13 3 13 3 18.3345555 5.5 18.3345555 5.5 21"></polyline>
                <path d="M21.333971,26.9234979 L23.9996812,26.9234979 L23.9996812,24.2303111 L21.333971,24.2303111 L21.333971,26.9234979 Z M26.666029,16.1554185 L26.666029,18.8471567 L23.9996812,18.8471567 L23.9996812,21.538412 L21.333971,21.538412 L21.333971,13.4609442 L26.666029,13.4609442 L26.666029,16.1554185 L26.666029,16.1554185 Z M29.3325362,5.38605156 L29.3325362,2.69189913 L26.666029,2.69189913 L26.666029,0 L16,0 L16,26.9234979 L18.6655507,26.9234979 L18.6655507,32.3072961 L16,32.3072961 L16,35 L26.666029,35 L26.666029,32.3072961 L29.3325362,32.3072961 L29.3325362,26.9234979 L32,26.9234979 L32,5.38605156 L29.3325362,5.38605156 L29.3325362,5.38605156 Z" id="Fill-193" fill="#6AB644"></path>
                <path d="M5.59889512,26.9234979 L8.3989286,26.9234979 L8.3989286,24.2303111 L5.59889512,24.2303111 L5.59889512,26.9234979 Z M2.79886164,16.1554185 L2.79886164,13.4609442 L8.3989286,13.4609442 L8.3989286,21.538412 L5.59889512,21.538412 L5.59889512,18.8471567 L2.79886164,18.8471567 L2.79886164,16.1554185 L2.79886164,16.1554185 Z M8.3989286,0 L5.59889512,0 L5.59889512,2.69189913 L2.79886164,2.69189913 L2.79886164,5.38605156 L0,5.38605156 L0,26.9234979 L2.79886164,26.9234979 L2.79886164,32.3072961 L5.59889512,32.3072961 L5.59889512,35 L14,35 L14,32.3072961 L11.1999665,32.3072961 L11.1999665,26.9234979 L14,26.9234979 L14,0 L8.3989286,0 L8.3989286,0 Z" id="Fill-194" fill="#6AB644"></path>
            </g>
            <g id="Group-40" transform="translate(5048.000000, 3635.000000)"></g>
        </g>
    </g>
</svg>