<?xml version="1.0" encoding="UTF-8" standalone="no"?>
<svg width="64px" height="64px" viewBox="0 0 64 64" version="1.1" xmlns="http://www.w3.org/2000/svg" xmlns:xlink="http://www.w3.org/1999/xlink">
    <!-- Generator: Sketch 3.7.2 (28276) - http://www.bohemiancoding.com/sketch -->
    <title>avatar22</title>
    <desc>Created with Sketch.</desc>
    <defs></defs>
    <g id="Page-1" stroke="none" stroke-width="1" fill="none" fill-rule="evenodd">
        <g id="dfasd" transform="translate(-5742.000000, -3886.000000)">
            <g id="Group-33" transform="translate(5758.000000, 3900.000000)">
                <polygon id="Fill-30" fill="#8A6651" points="26.6666667 18.1333333 28.8 18.1333333 28.8 16 26.6666667 16"></polygon>
                <polygon id="Fill-31" fill="#8A6651" points="10.6666667 18.1333333 16 18.1333333 16 10.6666667 10.6666667 10.6666667"></polygon>
                <path d="M18.6670652,15.644742 L21.3341304,15.644742 L21.3341304,13.1571922 L18.6670652,13.1571922 L18.6670652,15.644742 Z M24.0011956,13.1571922 L24.0011956,10.6666667 L16,10.6666667 L16,18.1333333 L26.6666667,18.1333333 L26.6666667,13.1571922 L24.0011956,13.1571922 L24.0011956,13.1571922 Z" id="Fill-32" fill="#9C745C"></path>
                <path d="M4.62123024,15.644742 L7.11061512,15.644742 L7.11061512,13.1571922 L4.62123024,13.1571922 L4.62123024,15.644742 Z M4.62123024,10.6666667 L2.13333333,10.6666667 L2.13333333,18.1333333 L9.6,18.1333333 L9.6,10.6666667 L4.62123024,10.6666667 L4.62123024,10.6666667 Z" id="Fill-33" fill="#9C745C"></path>
                <polygon id="Fill-34" fill="#272626" points="28.8 18.1333333 30.9333333 18.1333333 30.9333333 16 28.8 16"></polygon>
                <polyline id="Fill-35" fill="#272626" points="15.1460545 24.5333333 7.46666667 24.5333333 7.46666667 27.1994421 10.0269727 27.1994421 10.0269727 29.8666667 20.2666667 29.8666667 20.2666667 24.5333333 15.1460545 24.5333333"></polyline>
                <polyline id="Fill-36" fill="#272626" points="0 16.5327752 0 19.2 2.13333333 19.2 2.13333333 13.8666667 0 13.8666667 0 16.5327752"></polyline>
                <path d="M21.3333333,26.9713843 L21.3333333,29.5627233 L10.6666667,29.5627233 L10.6666667,26.9713843 L7.99960145,26.9713843 L7.99960145,24.3811294 L21.3333333,24.3811294 L21.3333333,26.9713843 L21.3333333,26.9713843 Z M26.6658696,19.2 L0,19.2 L0,29.5627233 L2.66706521,29.5627233 L2.66706521,37.3333333 L32,37.3333333 L32,32.1518943 L29.3329348,32.1518943 L29.3329348,26.9713843 L32,26.9713843 L32,19.2 L26.6658696,19.2 L26.6658696,19.2 Z" id="Fill-37" fill="#1A1918"></path>
                <polyline id="Fill-38" fill="#1A1918" points="29.3329348 2.66730432 26.6658696 2.66730432 26.6658696 0 5.33253624 0 5.33253624 2.66730432 2.66706521 2.66730432 2.66706521 5.33365216 0 5.33365216 0 13.3347681 2.66706521 13.3347681 2.66706521 10.6663478 24.0003985 10.6663478 24.0003985 13.3347681 26.6658696 13.3347681 26.6658696 16 32 16 32 5.33365216 29.3329348 5.33365216 29.3329348 2.66730432"></polyline>
                <polygon id="Fill-39" fill="#1A1918" points="18.1333333 16 20.2666667 16 20.2666667 13.8666667 18.1333333 13.8666667"></polygon>
                <polygon id="Fill-40" fill="#1A1918" points="5.33333333 16 7.46666667 16 7.46666667 13.8666667 5.33333333 13.8666667"></polygon>
            </g>
            <g id="Group-40" transform="translate(5048.000000, 3635.000000)"></g>
        </g>
    </g>
</svg>