<?xml version="1.0" encoding="UTF-8" standalone="no"?>
<svg width="64px" height="64px" viewBox="0 0 64 64" version="1.1" xmlns="http://www.w3.org/2000/svg" xmlns:xlink="http://www.w3.org/1999/xlink">
    <!-- Generator: Sketch 3.7.2 (28276) - http://www.bohemiancoding.com/sketch -->
    <title>avatar15</title>
    <desc>Created with Sketch.</desc>
    <defs></defs>
    <g id="Page-1" stroke="none" stroke-width="1" fill="none" fill-rule="evenodd">
        <g id="dfasd" transform="translate(-5480.000000, -3725.000000)">
            <g id="Group-28" transform="translate(5496.000000, 3738.000000)">
                <g id="Group-26">
                    <polygon id="Fill-99" fill="#DB3B35" points="13.0168652 17.6770239 15.5096964 17.6770239 15.5096964 15.1581093 13.0168652 15.1581093"></polygon>
                    <polyline id="Fill-100" fill="#A86F29" points="20.495061 35.3037059 8.03060644 35.3037059 8.03060644 37.8217173 22.9884884 37.8217173 22.9884884 35.3037059 20.495061 35.3037059"></polyline>
                    <polyline id="Fill-101" fill="#A86F29" points="15.5096964 22.7116919 15.5096964 17.6770239 13.0168652 17.6770239 13.0168652 25.2315098 15.5096964 25.2315098 15.5096964 22.7116919"></polyline>
                    <polygon id="Fill-102" fill="#A86F29" points="13.0168652 15.1581093 15.5096964 15.1581093 15.5096964 12.6391947 13.0168652 12.6391947"></polygon>
                    <path d="M13.0168652,32.7838881 L10.5232887,32.7838881 L10.5232887,27.7492201 L18.0022297,27.7492201 L18.0022297,30.2661777 L15.5096964,30.2661777 L15.5096964,32.7838881 L13.0168652,32.7838881 L13.0168652,32.7838881 Z M5.5380732,20.193831 L8.03060644,20.193831 L8.03060644,17.6770239 L5.5380732,17.6770239 L5.5380732,20.193831 Z M20.495061,20.193831 L22.9884884,20.193831 L22.9884884,17.6770239 L20.495061,17.6770239 L20.495061,20.193831 Z M27.9738529,15.1581093 L27.9738529,12.6391947 L15.5096964,12.6391947 L15.5096964,25.2315098 L13.0168652,25.2315098 L13.0168652,12.6391947 L0.551814491,12.6391947 L0.551814491,27.7492201 L3.04524191,27.7492201 L3.04524191,32.7838881 L5.5380732,32.7838881 L5.5380732,35.3037059 L25.4813197,35.3037059 L25.4813197,32.7838881 L27.9738529,32.7838881 L27.9738529,27.7492201 L30.4666842,27.7492201 L30.4666842,15.1581093 L27.9738529,15.1581093 L27.9738529,15.1581093 Z" id="Fill-103" fill="#B6782C"></path>
                    <polyline id="Fill-104" fill="#EB9177" points="13.0168652 27.7492201 10.5232887 27.7492201 10.5232887 32.7838881 15.5096964 32.7838881 15.5096964 30.2661777 18.0022297 30.2661777 18.0022297 27.7492201 13.0168652 27.7492201"></polyline>
                    <polygon id="Fill-105" fill="#1A1918" points="20.495061 20.193831 22.9884884 20.193831 22.9884884 17.6770239 20.495061 17.6770239"></polygon>
                    <polygon id="Fill-106" fill="#1A1918" points="5.5380732 20.193831 8.03060644 20.193831 8.03060644 17.6770239 5.5380732 17.6770239"></polygon>
                    <polyline id="Fill-107" fill="#1A1918" points="5.5380732 37.8217173 8.03060644 37.8217173 8.03060644 35.3037059 5.5380732 35.3037059 5.5380732 32.7838881 3.04524191 32.7838881 3.04524191 27.7492201 0.551814491 27.7492201 0.551814491 37.8217173 5.5380732 37.8217173"></polyline>
                    <polyline id="Fill-108" fill="#1A1918" points="5.5380732 12.6391947 27.9738529 12.6391947 27.9738529 15.1581093 30.4666842 15.1581093 30.4666842 27.7492201 27.9738529 27.7492201 27.9738529 32.7838881 25.4813197 32.7838881 25.4813197 35.3037059 22.9884884 35.3037059 22.9884884 37.8217173 30.4666842 37.8217173 30.4666842 32.7838881 32.9601116 32.7838881 32.9601116 7.60452667 30.4666842 7.60452667 30.4666842 5.08681633 27.9738529 5.08681633 27.9738529 2.56714903 25.4813197 2.56714903 25.4813197 0.0491376167 5.5380732 0.0491376167 5.5380732 2.56714903 3.04524191 2.56714903 3.04524191 5.08681633 0.551814491 5.08681633 0.551814491 12.6391947 5.5380732 12.6391947"></polyline>
                </g>
            </g>
            <g id="Group-40" transform="translate(5048.000000, 3635.000000)"></g>
        </g>
    </g>
</svg>