<?xml version="1.0" encoding="UTF-8" standalone="no"?>
<svg width="64px" height="64px" viewBox="0 0 64 64" version="1.1" xmlns="http://www.w3.org/2000/svg" xmlns:xlink="http://www.w3.org/1999/xlink">
    <!-- Generator: Sketch 3.7.2 (28276) - http://www.bohemiancoding.com/sketch -->
    <title>avatar2</title>
    <desc>Created with Sketch.</desc>
    <defs></defs>
    <g id="Page-1" stroke="none" stroke-width="1" fill="none" fill-rule="evenodd">
        <g id="dfasd" transform="translate(-5133.000000, -3635.000000)">
            <g id="Group-14" transform="translate(5148.000000, 3647.000000)">
                <polyline id="Fill-110" fill="#DE4447" points="21.7118421 27.8012761 8.15206317 27.8012761 8.15206317 30.5129077 24.4237979 30.5129077 24.4237979 27.8012761 21.7118421 27.8012761"></polyline>
                <polygon id="Fill-111" fill="#E0C88E" points="29.848358 19.6647603 32.5609623 19.6647603 32.5609623 11.5295414 29.848358 11.5295414"></polygon>
                <polyline id="Fill-112" fill="#E0C88E" points="18.9998863 35.9374677 8.15206317 35.9374677 8.15206317 38.6503963 24.4237979 38.6503963 24.4237979 35.9374677 18.9998863 35.9374677"></polyline>
                <polyline id="Fill-113" fill="#E0C88E" points="13.5753262 14.241173 13.5753262 25.0893203 16.2893897 25.0893203 16.2893897 11.5295414 13.5753262 11.5295414 13.5753262 14.241173"></polyline>
                <path d="M18.9998863,33.226809 L18.9998863,30.5129077 L13.5753262,30.5129077 L13.5753262,33.226809 L10.8646675,33.226809 L10.8646675,30.5129077 L8.15206317,30.5129077 L8.15206317,27.8012761 L24.4237979,27.8012761 L24.4237979,30.5129077 L21.7118421,30.5129077 L21.7118421,33.226809 L18.9998863,33.226809 L18.9998863,33.226809 Z M2.72734096,16.9529666 L5.44010739,16.9529666 L5.44010739,14.241173 L2.72734096,14.241173 L2.72734096,16.9529666 Z M24.4237979,16.9529666 L27.1364022,16.9529666 L27.1364022,14.241173 L24.4237979,14.241173 L24.4237979,16.9529666 Z M29.848358,19.6647603 L29.848358,11.5295414 L16.2893897,11.5295414 L16.2893897,25.0893203 L13.5753262,25.0893203 L13.5753262,11.5295414 L0.0155473043,11.5295414 L0.0155473043,27.8012761 L2.72734096,27.8012761 L2.72734096,33.226809 L5.44010739,33.226809 L5.44010739,35.9374677 L27.1364022,35.9374677 L27.1364022,33.226809 L29.848358,33.226809 L29.848358,27.8012761 L32.5609623,27.8012761 L32.5609623,19.6647603 L29.848358,19.6647603 L29.848358,19.6647603 Z" id="Fill-114" fill="#F1D798"></path>
                <polyline id="Fill-115" fill="#1A1918" points="29.848358 6.10498135 29.848358 0.681394043 27.1364022 0.681394043 27.1364022 3.39302557 5.44010739 3.39302557 5.44010739 0.681394043 2.72734096 0.681394043 2.72734096 6.10498135 0.0155473043 6.10498135 0.0155473043 11.5295414 32.5609623 11.5295414 32.5609623 6.10498135 29.848358 6.10498135"></polyline>
                <polygon id="Fill-116" fill="#1A1918" points="24.4237979 16.9529666 27.1364022 16.9529666 27.1364022 14.241173 24.4237979 14.241173"></polygon>
                <polygon id="Fill-117" fill="#1A1918" points="2.72734096 16.9529666 5.44010739 16.9529666 5.44010739 14.241173 2.72734096 14.241173"></polygon>
                <polygon id="Fill-118" fill="#FFFFFF" points="18.9998863 33.226809 21.7118421 33.226809 21.7118421 30.5129077 18.9998863 30.5129077"></polygon>
                <polygon id="Fill-119" fill="#FFFFFF" points="10.8646675 33.226809 13.5753262 33.226809 13.5753262 30.5129077 10.8646675 30.5129077"></polygon>
            </g>
            <g id="Group-40" transform="translate(5048.000000, 3635.000000)"></g>
        </g>
    </g>
</svg>