<?xml version="1.0" encoding="UTF-8" standalone="no"?>
<svg width="64px" height="64px" viewBox="0 0 64 64" version="1.1" xmlns="http://www.w3.org/2000/svg" xmlns:xlink="http://www.w3.org/1999/xlink">
    <!-- Generator: Sketch 3.7.2 (28276) - http://www.bohemiancoding.com/sketch -->
    <title>avatar11</title>
    <desc>Created with Sketch.</desc>
    <defs></defs>
    <g id="Page-1" stroke="none" stroke-width="1" fill="none" fill-rule="evenodd">
        <g id="dfasd" transform="translate(-5133.000000, -3886.000000)">
            <g id="Group-24" transform="translate(5148.000000, 3898.000000)">
                <polyline id="Fill-48" fill="#E0C88E" points="32 26.5007474 32 29 35 29 35 24 32 24 32 26.5007474"></polyline>
                <polyline id="Fill-49" fill="#E0C88E" points="20.6680483 38 10 38 10 41 26 41 26 38 20.6680483 38"></polyline>
                <polygon id="Fill-50" fill="#E0C88E" points="13 27 18 27 18 13 13 13"></polygon>
                <polyline id="Fill-51" fill="#4C4843" points="32.3076799 7.99946862 32.3076799 5.33404185 29.614716 5.33404185 29.614716 2.66702092 10.7686365 2.66702092 10.7686365 0 2.69119338 0 2.69119338 2.66702092 0 2.66702092 0 10.6664895 2.69119338 10.6664895 2.69119338 13.3335105 26.922396 13.3335105 26.922396 16.0005314 29.614716 16.0005314 29.614716 18.6659582 32.3076799 18.6659582 32.3076799 24 35 24 35 7.99946862 32.3076799 7.99946862"></polyline>
                <path d="M23.8181225,20.9994686 L26.5449802,20.9994686 L26.5449802,18.3324477 L23.8181225,18.3324477 L23.8181225,20.9994686 Z M29.272164,31.6659582 L26.5449802,31.6659582 L26.5449802,34.3329791 L21.09208,34.3329791 L21.09208,31.6659582 L26.5449802,31.6659582 L26.5449802,28.9989372 L29.272164,28.9989372 L29.272164,31.6659582 L29.272164,31.6659582 Z M4.72702076,20.9994686 L7.45404151,20.9994686 L7.45404151,18.3324477 L4.72702076,18.3324477 L4.72702076,20.9994686 Z M29.272164,15.6670209 L26.5449802,15.6670209 L26.5449802,13 L18.3631028,13 L18.3631028,26.3335105 L12.9090613,26.3335105 L12.9090613,13 L2,13 L2,28.9989372 L4.72702076,28.9989372 L4.72702076,34.3329791 L7.45404151,34.3329791 L7.45404151,37 L29.272164,37 L29.272164,34.3329791 L32,34.3329791 L32,18.3324477 L29.272164,18.3324477 L29.272164,15.6670209 L29.272164,15.6670209 Z" id="Fill-52" fill="#F1D798"></path>
                <polygon id="Fill-53" fill="#EB9177" points="27 32 30 32 30 29 27 29"></polygon>
                <polygon id="Fill-54" fill="#EB9177" points="21 35 26 35 26 32 21 32"></polygon>
                <polygon id="Fill-55" fill="#1A1918" points="24 22 27 22 27 19 24 19"></polygon>
                <polygon id="Fill-56" fill="#1A1918" points="5 22 8 22 8 19 5 19"></polygon>
            </g>
            <g id="Group-40" transform="translate(5048.000000, 3635.000000)"></g>
        </g>
    </g>
</svg>