<?xml version="1.0" encoding="UTF-8" standalone="no"?>
<svg width="64px" height="64px" viewBox="0 0 64 64" version="1.1" xmlns="http://www.w3.org/2000/svg" xmlns:xlink="http://www.w3.org/1999/xlink">
    <!-- Generator: Sketch 3.7.2 (28276) - http://www.bohemiancoding.com/sketch -->
    <title>avatar20</title>
    <desc>Created with Sketch.</desc>
    <defs></defs>
    <g id="Page-1" stroke="none" stroke-width="1" fill="none" fill-rule="evenodd">
        <g id="dfasd" transform="translate(-5565.000000, -3886.000000)">
            <g id="Group-31" transform="translate(5578.000000, 3898.000000)">
                <polyline id="Fill-152" fill="#E1BD62" points="24.5002989 38 12 38 12 40 27 40 27 38 24.5002989 38"></polyline>
                <polygon id="Fill-153" fill="#E1BD62" points="15 25 20 25 20 15 15 15"></polygon>
                <polyline id="Fill-154" fill="#F2AB63" points="29.4998505 23 29.4998505 25.4988791 27 25.4988791 27 30.4981318 29.4998505 30.4981318 29.4998505 33 32 33 32 23 29.4998505 23"></polyline>
                <polyline id="Fill-155" fill="#F2AB63" points="7.5 23 5 23 5 30 10 30 10 25.3328682 7.5 25.3328682 7.5 23"></polyline>
                <polyline id="Fill-156" fill="#FDEE8D" points="36.5335693 22.5018682 36.5335693 20 34.0671385 20 34.0671385 15.0007473 36.5335693 15.0007473 36.5335693 10 34.0671385 10 34.0671385 7.49962636 31.599823 7.49962636 31.599823 5.00074727 29.1332449 5.00074727 29.1332449 7.49962636 26.6669616 7.49962636 26.6669616 2.50037364 24.2005309 2.50037364 24.2005309 0 16.8003539 0 16.8003539 5.00074727 14.3339232 5.00074727 14.3339232 2.50037364 11.8666077 2.50037364 11.8666077 0 4.46731549 0 4.46731549 2.50037364 2 2.50037364 2 10 4.46731549 10 4.46731549 15.0007473 29.1332449 15.0007473 29.1332449 17.4996264 31.599823 17.4996264 31.599823 35.0007473 29.1332449 35.0007473 29.1332449 37.5011209 26.6669616 37.5011209 26.6669616 40 34.0671385 40 34.0671385 35.0007473 36.5335693 35.0007473 36.5335693 32.5018682 34.0671385 32.5018682 34.0671385 30 36.5335693 30 36.5335693 27.5011209 39 27.5011209 39 22.5018682 36.5335693 22.5018682"></polyline>
                <polyline id="Fill-157" fill="#FDEE8D" points="9.50022418 35.3328682 7.00044836 35.3328682 7.00044836 33 4.50067255 33 4.50067255 35.3328682 2 35.3328682 2 37.6671318 4.50067255 37.6671318 4.50067255 40 12 40 12 37.6671318 9.50022418 37.6671318 9.50022418 35.3328682"></polyline>
                <polyline id="Fill-158" fill="#FDEE8D" points="2.49962641 28 5 28 5 18 2.49962641 18 2.49962641 20.5 0 20.5 0 25.5 2.49962641 25.5 2.49962641 28"></polyline>
                <polygon id="Fill-159" fill="#DE4447" points="15 32 20 32 20 30 15 30"></polygon>
                <polygon id="Fill-160" fill="#1A1918" points="25 20 27 20 27 18 25 18"></polygon>
                <polygon id="Fill-161" fill="#1A1918" points="7 20 9 20 9 18 7 18"></polygon>
                <path d="M7.45438537,19.8880771 L9.90877075,19.8880771 L9.90877075,17.4433079 L7.45438537,17.4433079 L7.45438537,19.8880771 Z M14.8184219,32.1119229 L19.7270459,32.1119229 L19.7270459,29.6656925 L14.8184219,29.6656925 L14.8184219,32.1119229 Z M24.6368439,19.8880771 L27.0912293,19.8880771 L27.0912293,17.4433079 L24.6368439,17.4433079 L24.6368439,19.8880771 Z M29.5454679,17.4433079 L29.5454679,15 L19.7270459,15 L19.7270459,24.7776154 L14.8184219,24.7776154 L14.8184219,15 L5,15 L5,22.3343075 L7.45438537,22.3343075 L7.45438537,24.7776154 L9.90877075,24.7776154 L9.90877075,29.6656925 L7.45438537,29.6656925 L7.45438537,34.5552308 L9.90877075,34.5552308 L9.90877075,37 L29.5454679,37 L29.5454679,34.5552308 L32,34.5552308 L32,32.1119229 L29.5454679,32.1119229 L29.5454679,29.6656925 L27.0912293,29.6656925 L27.0912293,24.7776154 L29.5454679,24.7776154 L29.5454679,22.3343075 L32,22.3343075 L32,17.4433079 L29.5454679,17.4433079 L29.5454679,17.4433079 Z" id="Fill-162" fill="#FCD36B"></path>
            </g>
            <g id="Group-40" transform="translate(5048.000000, 3635.000000)"></g>
        </g>
    </g>
</svg>