<?xml version="1.0" encoding="UTF-8" standalone="no"?>
<svg width="64px" height="64px" viewBox="0 0 64 64" version="1.1" xmlns="http://www.w3.org/2000/svg" xmlns:xlink="http://www.w3.org/1999/xlink">
    <!-- Generator: Sketch 3.7.2 (28276) - http://www.bohemiancoding.com/sketch -->
    <title>avatar18</title>
    <desc>Created with Sketch.</desc>
    <defs></defs>
    <g id="Page-1" stroke="none" stroke-width="1" fill="none" fill-rule="evenodd">
        <g id="dfasd" transform="translate(-5565.000000, -3725.000000)">
            <g id="Group-36" transform="translate(5581.000000, 3738.000000)">
                <polyline id="Fill-163" fill="#DE4447" points="14.6670851 30 17 30 17 28 10 28 10 30 14.6670851 30"></polyline>
                <polyline id="Fill-164" fill="#ECC874" points="19.4992777 35 7 35 7 37 22 37 22 35 19.4992777 35"></polyline>
                <polygon id="Fill-165" fill="#ECC874" points="10 25 15 25 15 13 10 13"></polygon>
                <polygon id="Fill-166" fill="#1A1918" points="20 20 22 20 22 18 20 18"></polygon>
                <polygon id="Fill-167" fill="#1A1918" points="3 20 5 20 5 18 3 18"></polygon>
                <path d="M2.45505236,20.3337718 L4.90951778,20.3337718 L4.90951778,17.8876711 L2.45505236,17.8876711 L2.45505236,20.3337718 Z M12.2732075,27.6656437 L17.1818449,27.6656437 L17.1818449,30.1115982 L9.8180084,30.1115982 L9.8180084,27.6656437 L12.2732075,27.6656437 L12.2732075,27.6656437 Z M19.6361635,20.3337718 L22.0915094,20.3337718 L22.0915094,17.8876711 L19.6361635,17.8876711 L19.6361635,20.3337718 Z M24.5458281,13 L14.7276729,13 L14.7276729,25.2215889 L9.8180084,25.2215889 L9.8180084,13 L0,13 L0,27.6656437 L2.45505236,27.6656437 L2.45505236,32.5550684 L4.90951778,32.5550684 L4.90951778,35 L22.0915094,35 L22.0915094,32.5550684 L24.5458281,32.5550684 L24.5458281,30.1115982 L27,30.1115982 L27,15.4442009 L24.5458281,15.4442009 L24.5458281,13 L24.5458281,13 Z" id="Fill-168" fill="#FCD36B"></path>
                <polyline id="Fill-169" fill="#51C1E3" points="32.4996691 32.0670992 32.4996691 27.1331662 29.9993381 27.1331662 29.9993381 7.39876124 27.499605 7.39876124 27.499605 2.46586049 22.5002882 2.46586049 22.5002882 0 5.00036295 0 5.00036295 2.46586049 2.50048038 2.46586049 2.50048038 4.93319569 0 4.93319569 0 12.3340215 25.0000214 12.3340215 25.0000214 14.8004719 27.499605 14.8004719 27.499605 29.6013862 25.0000214 29.6013862 25.0000214 32.0670992 22.5002882 32.0670992 22.5002882 37 29.9993381 37 29.9993381 34.534287 35 34.534287 35 32.0670992 32.4996691 32.0670992"></polyline>
                <polyline id="Fill-170" fill="#51C1E3" points="4.66703864 33.0005231 2.3337983 33.0005231 2.3337983 28 0 28 0 38 7 38 7 35.5010089 4.66703864 35.5010089 4.66703864 33.0005231"></polyline>
            </g>
            <g id="Group-40" transform="translate(5048.000000, 3635.000000)"></g>
        </g>
    </g>
</svg>