<?xml version="1.0" encoding="UTF-8" standalone="no"?>
<svg width="64px" height="64px" viewBox="0 0 64 64" version="1.1" xmlns="http://www.w3.org/2000/svg" xmlns:xlink="http://www.w3.org/1999/xlink">
    <!-- Generator: Sketch 3.7.2 (28276) - http://www.bohemiancoding.com/sketch -->
    <title>avatar6</title>
    <desc>Created with Sketch.</desc>
    <defs></defs>
    <g id="Page-1" stroke="none" stroke-width="1" fill="none" fill-rule="evenodd">
        <g id="dfasd" transform="translate(-5218.000000, -3725.000000)">
            <g id="Group-18" transform="translate(5231.000000, 3738.000000)">
                <polygon id="Fill-138" fill="#D1B340" points="29.0309103 28.7344552 31.6384828 28.7344552 31.6384828 26.1285972 29.0309103 26.1285972"></polygon>
                <polygon id="Fill-139" fill="#D1B340" points="26.4230262 33.9502234 29.0309103 33.9502234 29.0309103 26.1285972 26.4230262 26.1285972"></polygon>
                <polygon id="Fill-140" fill="#D1B340" points="23.8159214 36.5571724 26.4230262 36.5571724 26.4230262 28.7344552 23.8159214 28.7344552"></polygon>
                <polygon id="Fill-141" fill="#D1B340" points="21.2091283 33.9502234 23.8159214 33.9502234 23.8159214 31.3414041 21.2091283 31.3414041"></polygon>
                <polyline id="Fill-142" fill="#E77E62" points="13.3882814 33.9502234 18.6032703 33.9502234 18.6032703 28.7344552 10.7805531 28.7344552 10.7805531 31.3414041 13.3882814 31.3414041 13.3882814 33.9502234"></polyline>
                <polyline id="Fill-143" fill="#ECC847" points="13.3882814 13.0927614 10.7805531 13.0927614 10.7805531 26.1285972 13.3882814 26.1285972 13.3882814 23.5205572 15.9941393 23.5205572 15.9941393 13.0927614 13.3882814 13.0927614"></polyline>
                <polygon id="Fill-144" fill="#C7AB3E" points="29.0309103 20.9126731 31.6384828 20.9126731 31.6384828 15.6998662 29.0309103 15.6998662"></polygon>
                <polygon id="Fill-145" fill="#C7AB3E" points="26.4230262 15.6998662 29.0309103 15.6998662 29.0309103 13.0927614 26.4230262 13.0927614"></polygon>
                <path d="M15.9941393,33.9502234 L13.3882814,33.9502234 L13.3882814,31.3414041 L10.7805531,31.3414041 L10.7805531,28.7344552 L18.6032703,28.7344552 L18.6032703,33.9502234 L15.9941393,33.9502234 L15.9941393,33.9502234 Z M21.2091283,31.3414041 L21.2091283,26.1285972 L8.17344828,26.1285972 L8.17344828,28.7344552 L5.56572,28.7344552 L5.56572,26.1285972 L0.351510345,26.1285972 L0.351510345,28.7344552 L2.95861517,28.7344552 L2.95861517,33.9502234 L5.56572,33.9502234 L5.56572,36.5571724 L8.17344828,36.5571724 L8.17344828,39.1630303 L23.8159214,39.1630303 L23.8159214,33.9502234 L21.2091283,33.9502234 L21.2091283,31.3414041 L21.2091283,31.3414041 Z" id="Fill-146" fill="#C7AB3E"></path>
                <path d="M21.2091283,20.9126731 L23.8159214,20.9126731 L23.8159214,18.3055683 L21.2091283,18.3055683 L21.2091283,20.9126731 Z M29.0309103,20.9126731 L29.0309103,15.6998662 L26.4230262,15.6998662 L26.4230262,13.0927614 L15.9941393,13.0927614 L15.9941393,23.5205572 L13.3882814,23.5205572 L13.3882814,26.1285972 L21.2091283,26.1285972 L21.2091283,31.3414041 L23.8159214,31.3414041 L23.8159214,28.7344552 L26.4230262,28.7344552 L26.4230262,26.1285972 L31.6384828,26.1285972 L31.6384828,20.9126731 L29.0309103,20.9126731 L29.0309103,20.9126731 Z" id="Fill-147" fill="#FBD44A"></path>
                <path d="M2.95861517,20.9126731 L5.56572,20.9126731 L5.56572,18.3055683 L2.95861517,18.3055683 L2.95861517,20.9126731 Z M5.56572,13.0927614 L0.351510345,13.0927614 L0.351510345,26.1285972 L5.56572,26.1285972 L5.56572,28.7344552 L8.17344828,28.7344552 L8.17344828,26.1285972 L10.7805531,26.1285972 L10.7805531,13.0927614 L5.56572,13.0927614 L5.56572,13.0927614 Z" id="Fill-148" fill="#FBD44A"></path>
                <polyline id="Fill-149" fill="#CFEBF3" points="36.852069 18.3055683 34.2460552 18.3055683 34.2460552 20.9126731 39.4580828 20.9126731 39.4580828 18.3055683 36.852069 18.3055683"></polyline>
                <polygon id="Fill-150" fill="#CFEBF3" points="29.0309103 15.6998662 34.2460552 15.6998662 34.2460552 13.0927614 29.0309103 13.0927614"></polygon>
                <polygon id="Fill-151" fill="#CFEBF3" points="26.4230262 7.87714897 29.0309103 7.87714897 29.0309103 5.27113517 26.4230262 5.27113517"></polygon>
                <polygon id="Fill-152" fill="#CFEBF3" points="23.8159214 10.4839421 26.4230262 10.4839421 26.4230262 7.87714897 23.8159214 7.87714897"></polygon>
                <polygon id="Fill-153" fill="#CFEBF3" points="21.2091283 2.66434207 23.8159214 2.66434207 23.8159214 0.0552110345 21.2091283 0.0552110345"></polygon>
                <polygon id="Fill-154" fill="#CFEBF3" points="18.6032703 13.0927614 21.2091283 13.0927614 21.2091283 10.4839421 18.6032703 10.4839421"></polygon>
                <polygon id="Fill-155" fill="#CFEBF3" points="15.9941393 7.87714897 18.6032703 7.87714897 18.6032703 5.27113517 15.9941393 5.27113517"></polygon>
                <polygon id="Fill-156" fill="#CFEBF3" points="13.3882814 5.27113517 15.9941393 5.27113517 15.9941393 2.66434207 13.3882814 2.66434207"></polygon>
                <polygon id="Fill-157" fill="#CFEBF3" points="8.17344828 13.0927614 10.7805531 13.0927614 10.7805531 10.4839421 8.17344828 10.4839421"></polygon>
                <polygon id="Fill-158" fill="#CFEBF3" points="5.56572 10.4839421 8.17344828 10.4839421 8.17344828 7.87714897 5.56572 7.87714897"></polygon>
                <polygon id="Fill-159" fill="#CFEBF3" points="5.56572 5.27113517 8.17344828 5.27113517 8.17344828 2.66434207 5.56572 2.66434207"></polygon>
                <polygon id="Fill-160" fill="#CFEBF3" points="0.351510345 13.0927614 2.95861517 13.0927614 2.95861517 10.4839421 0.351510345 10.4839421"></polygon>
                <polygon id="Fill-161" fill="#1A1918" points="21.2091283 20.9126731 23.8159214 20.9126731 23.8159214 18.3055683 21.2091283 18.3055683"></polygon>
                <polygon id="Fill-162" fill="#1A1918" points="2.95861517 20.9126731 5.56572 20.9126731 5.56572 18.3055683 2.95861517 18.3055683"></polygon>
                <polygon id="Fill-163" fill="#FFFFFF" points="36.852069 23.5205572 39.4580828 23.5205572 39.4580828 20.9126731 36.852069 20.9126731"></polygon>
                <polyline id="Fill-164" fill="#FFFFFF" points="36.852069 10.4839421 36.852069 13.0927614 34.2460552 13.0927614 34.2460552 15.6998662 31.6384828 15.6998662 31.6384828 20.9126731 34.2460552 20.9126731 34.2460552 18.3055683 36.852069 18.3055683 36.852069 15.6998662 39.4580828 15.6998662 39.4580828 10.4839421 36.852069 10.4839421"></polyline>
                <path d="M15.9941393,7.87714897 L15.9941393,5.27113517 L13.3882814,5.27113517 L13.3882814,2.66434207 L15.9941393,2.66434207 L15.9941393,5.27113517 L18.6032703,5.27113517 L18.6032703,7.87714897 L15.9941393,7.87714897 L15.9941393,7.87714897 Z M31.6384828,10.4839421 L31.6384828,5.27113517 L29.0309103,5.27113517 L29.0309103,7.87714897 L26.4230262,7.87714897 L26.4230262,10.4839421 L23.8159214,10.4839421 L23.8159214,7.87714897 L26.4230262,7.87714897 L26.4230262,5.27113517 L29.0309103,5.27113517 L29.0309103,2.66434207 L21.2091283,2.66434207 L21.2091283,0.0552110345 L8.17344828,0.0552110345 L8.17344828,5.27113517 L2.95861517,5.27113517 L2.95861517,7.87714897 L0.351510345,7.87714897 L0.351510345,10.4839421 L2.95861517,10.4839421 L2.95861517,13.0927614 L8.17344828,13.0927614 L8.17344828,10.4839421 L5.56572,10.4839421 L5.56572,7.87714897 L8.17344828,7.87714897 L8.17344828,10.4839421 L10.7805531,10.4839421 L10.7805531,13.0927614 L18.6032703,13.0927614 L18.6032703,10.4839421 L21.2091283,10.4839421 L21.2091283,13.0927614 L31.6384828,13.0927614 L31.6384828,10.4839421 L31.6384828,10.4839421 Z" id="Fill-165" fill="#FFFFFF"></path>
            </g>
            <g id="Group-40" transform="translate(5048.000000, 3635.000000)"></g>
        </g>
    </g>
</svg>