<?xml version="1.0" encoding="UTF-8" standalone="no"?>
<svg width="64px" height="64px" viewBox="0 0 64 64" version="1.1" xmlns="http://www.w3.org/2000/svg" xmlns:xlink="http://www.w3.org/1999/xlink">
    <!-- Generator: Sketch 3.7.2 (28276) - http://www.bohemiancoding.com/sketch -->
    <title>avatar13</title>
    <desc>Created with Sketch.</desc>
    <defs></defs>
    <g id="Page-1" stroke="none" stroke-width="1" fill="none" fill-rule="evenodd">
        <g id="dfasd" transform="translate(-5310.000000, -3886.000000)">
            <g id="Group-22" transform="translate(5326.000000, 3899.000000)">
                <polygon id="Fill-70" fill="#BF665D" points="8 33 11 33 11 30 8 30"></polygon>
                <polyline id="Fill-71" fill="#69422A" points="33 21.5 33 19 30 19 30 24 33 24 33 21.5"></polyline>
                <polygon id="Fill-72" fill="#69422A" points="11 14 16 14 16 11 11 11"></polygon>
                <polyline id="Fill-73" fill="#69422A" points="13.3343962 39 24 39 24 36 8 36 8 39 13.3343962 39"></polyline>
                <polyline id="Fill-74" fill="#69422A" points="10.7483562 28 16.2483562 28 16.2483562 25.249589 19 25.249589 19 22.500822 16.2483562 22.500822 16.2483562 17 10.7483562 17 10.7483562 22.500822 8 22.500822 8 25.249589 10.7483562 25.249589 10.7483562 28"></polyline>
                <path d="M8.25082196,33.2868733 L10.999452,33.2868733 L10.999452,30.5737467 L8.25082196,30.5737467 L8.25082196,33.2868733 Z M30.249726,25.1426253 L30.249726,17 L24.749178,17 L24.749178,19.716372 L19.2519179,19.716372 L19.2519179,17 L16.5,17 L16.5,22.4294987 L19.2519179,22.4294987 L19.2519179,25.1426253 L16.5,25.1426253 L16.5,27.8573747 L10.999452,27.8573747 L10.999452,25.1426253 L8.25082196,25.1426253 L8.25082196,22.4294987 L10.999452,22.4294987 L10.999452,17 L8.25082196,17 L8.25082196,19.716372 L2.75027399,19.716372 L2.75027399,17 L0,17 L0,27.8573747 L2.75027399,27.8573747 L2.75027399,33.2868733 L5.50054797,33.2868733 L5.50054797,36 L27.499452,36 L27.499452,33.2868733 L30.249726,33.2868733 L30.249726,27.8573747 L33,27.8573747 L33,25.1426253 L30.249726,25.1426253 L30.249726,25.1426253 Z" id="Fill-75" fill="#7A4C32"></path>
                <polyline id="Fill-76" fill="#7A4C32" points="21.500822 14 27 14 27 11 16 11 16 14 21.500822 14"></polyline>
                <polyline id="Fill-77" fill="#7A4C32" points="5.500822 14 11 14 11 11 0 11 0 14 5.500822 14"></polyline>
                <polyline id="Fill-78" fill="#FAD82B" points="30.249726 5.33280191 30.249726 2.66560383 27.499452 2.66560383 27.499452 0 2.75027399 0 2.75027399 2.66560383 0 2.66560383 0 10.6671981 27.499452 10.6671981 27.499452 13.3328019 30.249726 13.3328019 30.249726 16 33 16 33 5.33280191 30.249726 5.33280191"></polyline>
                <polygon id="Fill-79" fill="#1A1918" points="30 20 33 20 33 17 30 17"></polygon>
                <polyline id="Fill-80" fill="#1A1918" points="2.72756915 19 8.18270746 19 8.18270746 16.4992531 19.0929841 16.4992531 19.0929841 19 24.5448617 19 24.5448617 16.4992531 30 16.4992531 30 14 0 14 0 16.4992531 2.72756915 16.4992531 2.72756915 19"></polyline>
            </g>
            <g id="Group-40" transform="translate(5048.000000, 3635.000000)"></g>
        </g>
    </g>
</svg>