<?xml version="1.0" encoding="UTF-8" standalone="no"?>
<svg width="64px" height="64px" viewBox="0 0 64 64" version="1.1" xmlns="http://www.w3.org/2000/svg" xmlns:xlink="http://www.w3.org/1999/xlink">
    <!-- Generator: Sketch 3.7.2 (28276) - http://www.bohemiancoding.com/sketch -->
    <title>avatar17</title>
    <desc>Created with Sketch.</desc>
    <defs></defs>
    <g id="Page-1" stroke="none" stroke-width="1" fill="none" fill-rule="evenodd">
        <g id="dfasd" transform="translate(-5480.000000, -3886.000000)">
            <g id="Group-29" transform="translate(5495.000000, 3898.000000)">
                <polygon id="Fill-171" fill="#FFFFFF" points="23 7 25 7 25 5 23 5"></polygon>
                <polyline id="Fill-172" fill="#DE4447" points="17.6670386 33 13 33 13 35 20 35 20 33 17.6670386 33"></polyline>
                <polygon id="Fill-173" fill="#E0C88E" points="8 37 10 37 10 35 8 35"></polygon>
                <polygon id="Fill-174" fill="#FFFFFF" points="5 7 7 7 7 5 5 5"></polygon>
                <polygon id="Fill-175" fill="#E0C88E" points="28 32 30 32 30 30 28 30"></polygon>
                <polygon id="Fill-176" fill="#E0C88E" points="25 27 27 27 27 25 25 25"></polygon>
                <polygon id="Fill-177" fill="#E0C88E" points="23 32 25 32 25 30 23 30"></polygon>
                <polyline id="Fill-178" fill="#E0C88E" points="19.9995516 38 10 38 10 40 25 40 25 38 19.9995516 38"></polyline>
                <polyline id="Fill-179" fill="#E0C88E" points="17 20.4996264 17 13 15 13 15 23 17 23 17 20.4996264"></polyline>
                <polygon id="Fill-180" fill="#E0C88E" points="8 32 10 32 10 30 8 30"></polygon>
                <polygon id="Fill-181" fill="#E0C88E" points="5 27 7 27 7 25 5 25"></polygon>
                <polygon id="Fill-182" fill="#E0C88E" points="3 32 5 32 5 30 3 30"></polygon>
                <path d="M25.5006725,28.0011957 L28.0004484,28.0011957 L28.0004484,25.4992527 L25.5006725,25.4992527 L25.5006725,28.0011957 Z M23,33.0005978 L25.5006725,33.0005978 L25.5006725,30.5001495 L23,30.5001495 L23,33.0005978 Z M18.0004484,35.4995516 L13,35.4995516 L13,33.0005978 L20.5000747,33.0005978 L20.5000747,35.4995516 L18.0004484,35.4995516 L18.0004484,35.4995516 Z M8.00044836,33.0005978 L10.5002242,33.0005978 L10.5002242,30.5001495 L8.00044836,30.5001495 L8.00044836,33.0005978 Z M5.50067255,28.0011957 L8.00044836,28.0011957 L8.00044836,25.4992527 L5.50067255,25.4992527 L5.50067255,28.0011957 Z M5.50067255,20.4998505 L8.00044836,20.4998505 L8.00044836,17.9994022 L5.50067255,17.9994022 L5.50067255,20.4998505 Z M18.0004484,25.4992527 L20.5000747,25.4992527 L20.5000747,28.0011957 L18.0004484,28.0011957 L18.0004484,30.5001495 L15.5006725,30.5001495 L15.5006725,28.0011957 L13,28.0011957 L13,25.4992527 L18.0004484,25.4992527 L18.0004484,25.4992527 Z M25.5006725,20.4998505 L28.0004484,20.4998505 L28.0004484,17.9994022 L25.5006725,17.9994022 L25.5006725,20.4998505 Z M30.5002242,17.9994022 L30.5002242,15.4989538 L28.0004484,15.4989538 L28.0004484,13 L18.0004484,13 L18.0004484,23.0002989 L15.5006725,23.0002989 L15.5006725,13 L3,13 L3,30.5001495 L5.50067255,30.5001495 L5.50067255,35.4995516 L10.5002242,35.4995516 L10.5002242,38 L28.0004484,38 L28.0004484,35.4995516 L30.5002242,35.4995516 L30.5002242,33.0005978 L28.0004484,33.0005978 L28.0004484,30.5001495 L33,30.5001495 L33,17.9994022 L30.5002242,17.9994022 L30.5002242,17.9994022 Z" id="Fill-183" fill="#F1D798"></path>
                <polyline id="Fill-184" fill="#929392" points="32.4993595 10.4606328 29.9996157 10.4606328 29.9996157 8 2.4997438 8 2.4997438 10.4606328 0 10.4606328 0 17.8454746 2.4997438 17.8454746 2.4997438 12.9227373 27.4998719 12.9227373 27.4998719 15.3833701 29.9996157 15.3833701 29.9996157 17.8454746 32.4993595 17.8454746 32.4993595 30.1545254 29.9996157 30.1545254 29.9996157 35.0772627 27.4998719 35.0772627 27.4998719 37.5393672 25.0001281 37.5393672 25.0001281 40 35 40 35 10.4606328 32.4993595 10.4606328"></polyline>
                <polyline id="Fill-185" fill="#929392" points="7.66694564 35.3328682 5.33389128 35.3328682 5.33389128 33 3 33 3 40 10 40 10 37.6671318 7.66694564 37.6671318 7.66694564 35.3328682"></polyline>
                <polygon id="Fill-186" fill="#1A1918" points="30 10 32 10 32 8 30 8"></polygon>
                <polyline id="Fill-187" fill="#1A1918" points="27.6001722 4.66527197 27.6001722 2.33193863 25.2003443 2.33193863 25.2003443 0 22.7996557 0 22.7996557 2.33193863 20.3996843 2.33193863 20.3996843 4.66527197 18 4.66527197 18 7 22.7996557 7 22.7996557 4.66527197 25.2003443 4.66527197 25.2003443 7 30 7 30 4.66527197 27.6001722 4.66527197"></polyline>
                <polygon id="Fill-188" fill="#1A1918" points="25 20 27 20 27 18 25 18"></polygon>
                <polyline id="Fill-189" fill="#1A1918" points="15.3339378 25 13 25 13 27.5014943 15.3339378 27.5014943 15.3339378 30 17.6670386 30 17.6670386 27.5014943 20 27.5014943 20 25 15.3339378 25"></polyline>
                <polyline id="Fill-190" fill="#1A1918" points="13 4.66527197 10.5002242 4.66527197 10.5002242 2.33193863 8.00044836 2.33193863 8.00044836 0 5.50067255 0 5.50067255 2.33193863 3 2.33193863 3 7 5.50067255 7 5.50067255 4.66527197 8.00044836 4.66527197 8.00044836 7 13 7 13 4.66527197"></polyline>
                <polygon id="Fill-191" fill="#1A1918" points="5 20 7 20 7 18 5 18"></polygon>
                <polygon id="Fill-192" fill="#1A1918" points="0 10 2 10 2 8 0 8"></polygon>
            </g>
            <g id="Group-40" transform="translate(5048.000000, 3635.000000)"></g>
        </g>
    </g>
</svg>