<?xml version="1.0" encoding="UTF-8" standalone="no"?>
<svg width="64px" height="64px" viewBox="0 0 64 64" version="1.1" xmlns="http://www.w3.org/2000/svg" xmlns:xlink="http://www.w3.org/1999/xlink">
    <!-- Generator: Sketch 3.7.2 (28276) - http://www.bohemiancoding.com/sketch -->
    <title>avatar4</title>
    <desc>Created with Sketch.</desc>
    <defs></defs>
    <g id="Page-1" stroke="none" stroke-width="1" fill="none" fill-rule="evenodd">
        <g id="dfasd" transform="translate(-5048.000000, -3725.000000)">
            <g id="Group-16" transform="translate(5064.000000, 3738.000000)">
                <polygon id="Fill-95" fill="#DB8E36" points="30.1110939 22.1748149 32.8236982 22.1748149 32.8236982 16.7512276 30.1110939 16.7512276"></polygon>
                <polyline id="Fill-96" fill="#DB8E36" points="19.2626223 35.7370257 16.5521257 35.7370257 16.5521257 38.4475223 24.6863717 38.4475223 24.6863717 35.7370257 19.2626223 35.7370257"></polyline>
                <polyline id="Fill-97" fill="#DB8E36" points="16.5521257 19.4631833 16.5521257 11.3266675 11.1274034 11.3266675 11.1274034 22.1748149 16.5521257 22.1748149 16.5521257 19.4631833"></polyline>
                <polygon id="Fill-98" fill="#DB8E36" points="8.414637 38.4475223 11.1274034 38.4475223 11.1274034 35.7370257 8.414637 35.7370257"></polygon>
                <polygon id="Fill-99" fill="#DE4447" points="11.1274034 33.0229623 16.5521257 33.0229623 16.5521257 30.3113307 11.1274034 30.3113307"></polygon>
                <polyline id="Fill-100" fill="#343433" points="30.1110939 8.61600874 30.1110939 3.19258357 27.3991381 3.19258357 27.3991381 0.478520087 2.99007691 0.478520087 2.99007691 3.19258357 0.278283261 3.19258357 0.278283261 8.61600874 2.99007691 8.61600874 2.99007691 11.3266675 21.9744159 11.3266675 21.9744159 8.61600874 24.6863717 8.61600874 24.6863717 11.3266675 27.3991381 11.3266675 27.3991381 14.039596 30.1110939 14.039596 30.1110939 16.7512276 32.8236982 16.7512276 32.8236982 8.61600874 30.1110939 8.61600874"></polyline>
                <polygon id="Fill-101" fill="#343433" points="21.9744159 27.599375 24.6863717 27.599375 24.6863717 24.8877434 21.9744159 24.8877434"></polygon>
                <polygon id="Fill-102" fill="#343433" points="19.2626223 30.3113307 21.9744159 30.3113307 21.9744159 27.599375 19.2626223 27.599375"></polygon>
                <polyline id="Fill-103" fill="#343433" points="16.5521257 24.8877434 8.414637 24.8877434 8.414637 27.599375 19.2626223 27.599375 19.2626223 24.8877434 16.5521257 24.8877434"></polyline>
                <polygon id="Fill-104" fill="#343433" points="11.1274034 38.4475223 16.5521257 38.4475223 16.5521257 35.7370257 11.1274034 35.7370257"></polygon>
                <polygon id="Fill-105" fill="#343433" points="5.70284335 30.3113307 8.414637 30.3113307 8.414637 27.599375 5.70284335 27.599375"></polygon>
                <polygon id="Fill-106" fill="#343433" points="2.99007691 27.599375 5.70284335 27.599375 5.70284335 24.8877434 2.99007691 24.8877434"></polygon>
                <polygon id="Fill-107" fill="#1A1918" points="21.9744159 19.4631833 24.6863717 19.4631833 24.6863717 16.7512276 21.9744159 16.7512276"></polygon>
                <polygon id="Fill-108" fill="#1A1918" points="2.99007691 19.4631833 5.70284335 19.4631833 5.70284335 16.7512276 2.99007691 16.7512276"></polygon>
                <path d="M21.9744159,19.4631833 L24.6863717,19.4631833 L24.6863717,16.7512276 L21.9744159,16.7512276 L21.9744159,19.4631833 Z M11.1274034,33.0229623 L16.5521257,33.0229623 L16.5521257,30.3113307 L11.1274034,30.3113307 L11.1274034,33.0229623 Z M2.99007691,19.4631833 L5.70284335,19.4631833 L5.70284335,16.7512276 L2.99007691,16.7512276 L2.99007691,19.4631833 Z M30.1110939,22.1748149 L30.1110939,14.039596 L27.3991381,14.039596 L27.3991381,11.3266675 L24.6863717,11.3266675 L24.6863717,8.61600874 L21.9744159,8.61600874 L21.9744159,11.3266675 L16.5521257,11.3266675 L16.5521257,22.1748149 L11.1274034,22.1748149 L11.1274034,11.3266675 L2.99007691,11.3266675 L2.99007691,8.61600874 L0.278283261,8.61600874 L0.278283261,27.599375 L2.99007691,27.599375 L2.99007691,24.8877434 L5.70284335,24.8877434 L5.70284335,27.599375 L8.414637,27.599375 L8.414637,24.8877434 L19.2626223,24.8877434 L19.2626223,27.599375 L21.9744159,27.599375 L21.9744159,24.8877434 L24.6863717,24.8877434 L24.6863717,27.599375 L21.9744159,27.599375 L21.9744159,30.3113307 L19.2626223,30.3113307 L19.2626223,27.599375 L8.414637,27.599375 L8.414637,30.3113307 L5.70284335,30.3113307 L5.70284335,27.599375 L2.99007691,27.599375 L2.99007691,33.0229623 L5.70284335,33.0229623 L5.70284335,35.7370257 L27.3991381,35.7370257 L27.3991381,33.0229623 L30.1110939,33.0229623 L30.1110939,27.599375 L32.8236982,27.599375 L32.8236982,22.1748149 L30.1110939,22.1748149 L30.1110939,22.1748149 Z" id="Fill-109" fill="#ED9839"></path>
            </g>
            <g id="Group-40" transform="translate(5048.000000, 3635.000000)"></g>
        </g>
    </g>
</svg>