<?xml version="1.0" encoding="UTF-8" standalone="no"?>
<svg width="64px" height="64px" viewBox="0 0 64 64" version="1.1" xmlns="http://www.w3.org/2000/svg" xmlns:xlink="http://www.w3.org/1999/xlink">
    <!-- Generator: Sketch 3.7.2 (28276) - http://www.bohemiancoding.com/sketch -->
    <title>avatar19</title>
    <desc>Created with Sketch.</desc>
    <defs></defs>
    <g id="Page-1" stroke="none" stroke-width="1" fill="none" fill-rule="evenodd">
        <g id="dfasd" transform="translate(-5565.000000, -3805.000000)">
            <g id="Group-30" transform="translate(5580.000000, 3805.000000)">
                <polygon id="Fill-127" fill="#AADAE1" points="27 37 29 37 29 35 27 35"></polygon>
                <polygon id="Fill-128" fill="#AADAE1" points="22 35 27 35 27 33 22 33"></polygon>
                <polygon id="Fill-129" fill="#AADAE1" points="15 35 17 35 17 33 15 33"></polygon>
                <polyline id="Fill-130" fill="#E8819D" points="17.4999253 13 15 13 15 15 20 15 20 13 17.4999253 13"></polyline>
                <polygon id="Fill-131" fill="#EB9177" points="13 47 18 47 18 45 13 45"></polygon>
                <polygon id="Fill-132" fill="#AADAE1" points="10 35 15 35 15 33 10 33"></polygon>
                <polyline id="Fill-133" fill="#ECC982" points="27 40.5 27 43 29 43 29 38 27 38 27 40.5"></polyline>
                <polyline id="Fill-134" fill="#ECC982" points="15 42 15 39.6677826 12.5003736 39.6677826 12.5003736 35 10 35 10 42 15 42"></polyline>
                <polyline id="Fill-135" fill="#ECC982" points="13.0003985 52 23 52 23 50 8 50 8 52 13.0003985 52"></polyline>
                <polygon id="Fill-136" fill="#ECC982" points="10 32 12 32 12 30 10 30"></polygon>
                <polygon id="Fill-137" fill="#AADAE1" points="8 35 10 35 10 33 8 33"></polygon>
                <polygon id="Fill-138" fill="#EAEAE9" points="20 35 22 35 22 33 20 33"></polygon>
                <polygon id="Fill-139" fill="#EAEAE9" points="18 37 20 37 20 35 18 35"></polygon>
                <polygon id="Fill-140" fill="#EAEAE9" points="5 35 7 35 7 33 5 33"></polygon>
                <polygon id="Fill-141" fill="#EAEAE9" points="3 37 5 37 5 35 3 35"></polygon>
                <polygon id="Fill-142" fill="#FFFFFF" points="20 37 22 37 22 35 20 35"></polygon>
                <polygon id="Fill-143" fill="#FFFFFF" points="18 35 20 35 20 33 18 33"></polygon>
                <polygon id="Fill-144" fill="#FFFFFF" points="5 37 7 37 7 35 5 35"></polygon>
                <polygon id="Fill-145" fill="#FFFFFF" points="3 35 5 35 5 33 3 33"></polygon>
                <polygon id="Fill-146" fill="#AADAE1" points="0 35 2 35 2 33 0 33"></polygon>
                <polyline id="Fill-147" fill="#FBD589" points="17.7996557 32 25 32 25 30 13 30 13 32 17.7996557 32"></polyline>
                <path d="M12.2733542,47.4998506 L17.1819916,47.4998506 L17.1819916,44.9997011 L12.2733542,44.9997011 L12.2733542,47.4998506 Z M2.4551991,44.9997011 L2.4551991,47.4998506 L4.90951778,47.4998506 L4.90951778,50 L24.5458281,50 L24.5458281,47.4998506 L27,47.4998506 L27,35 L22.0915094,35 L22.0915094,37.5022416 L17.1819916,37.5022416 L17.1819916,35 L12.2733542,35 L12.2733542,40.0008966 L14.7278197,40.0008966 L14.7278197,42.4995517 L9.81815514,42.4995517 L9.81815514,35 L7.36368972,35 L7.36368972,37.5022416 L2.4551991,37.5022416 L2.4551991,35 L0,35 L0,42.4995517 L2.4551991,42.4995517 L2.4551991,44.9997011 L2.4551991,44.9997011 Z" id="Fill-148" fill="#FBD589"></path>
                <polyline id="Fill-149" fill="#FBD589" points="5.00044836 32 10 32 10 30 0 30 0 32 5.00044836 32"></polyline>
                <polyline id="Fill-150" fill="#905F2C" points="27.5714078 2.39928255 27.5714078 0 20.2853409 0 20.2853409 2.39928255 15.4285922 2.39928255 15.4285922 4.79899558 13 4.79899558 13 9.60100442 15.4285922 9.60100442 15.4285922 12 22.7146591 12 22.7146591 9.60100442 25.143106 9.60100442 25.143106 4.79899558 30 4.79899558 30 2.39928255 27.5714078 2.39928255"></polyline>
                <polyline id="Fill-151" fill="#905F2C" points="27.5000747 20.0013825 27.5000747 17.5006912 22.5006725 17.5006912 22.5006725 15 7.50007473 15 7.50007473 17.5006912 2.50067255 17.5006912 2.50067255 22.5004297 0 22.5004297 0 30.0016066 25.0004484 30.0016066 25.0004484 32.500355 27.5000747 32.500355 27.5000747 35 30 35 30 22.5004297 27.5000747 22.5004297 27.5000747 20.0013825"></polyline>
            </g>
            <g id="Group-40" transform="translate(5048.000000, 3635.000000)"></g>
        </g>
    </g>
</svg>