<?xml version="1.0" encoding="UTF-8" standalone="no"?>
<svg width="64px" height="64px" viewBox="0 0 64 64" version="1.1" xmlns="http://www.w3.org/2000/svg" xmlns:xlink="http://www.w3.org/1999/xlink">
    <!-- Generator: Sketch 3.7.2 (28276) - http://www.bohemiancoding.com/sketch -->
    <title>avatar23</title>
    <desc>Created with Sketch.</desc>
    <defs></defs>
    <g id="Page-1" stroke="none" stroke-width="1" fill="none" fill-rule="evenodd">
        <g id="dfasd" transform="translate(-5744.000000, -3805.000000)">
            <g id="Group-34" transform="translate(5757.000000, 3819.000000)">
                <polygon id="Fill-109" fill="#5EC3E1" points="30 15 32 15 32 8 30 8"></polygon>
                <polyline id="Fill-110" fill="#BF665D" points="17.5007474 25 15 25 15 27 20 27 20 25 17.5007474 25"></polyline>
                <polyline id="Fill-111" fill="#ED9839" points="39.4996264 12.5010711 39.4996264 10 32 10 32 20.0012953 37.0007473 20.0012953 37.0007473 22.5013202 39.4996264 22.5013202 39.4996264 25 42 25 42 12.5010711 39.4996264 12.5010711"></polyline>
                <polyline id="Fill-112" fill="#ED9839" points="27.5011209 2.499178 25.0007473 2.499178 25.0007473 0 5.00074727 0 5.00074727 2.499178 2.50037364 2.499178 2.50037364 4.99970109 0 4.99970109 0 12.5000747 25.0007473 12.5000747 25.0007473 14.9995516 27.5011209 14.9995516 27.5011209 20 30 20 30 4.99970109 27.5011209 4.99970109 27.5011209 2.499178"></polyline>
                <polygon id="Fill-113" fill="#ECC982" points="27 27 29 27 29 20 27 20"></polygon>
                <polyline id="Fill-114" fill="#ECC982" points="16.9995018 35 7 35 7 37 22 37 22 35 16.9995018 35"></polyline>
                <polyline id="Fill-115" fill="#ECC982" points="12 20.5000374 12 13 10 13 10 23 12 23 12 20.5000374"></polyline>
                <polygon id="Fill-116" fill="#1A1918" points="20 17 22 17 22 15 20 15"></polygon>
                <polygon id="Fill-117" fill="#1A1918" points="2 17 4 17 4 15 2 15"></polygon>
                <path d="M19.6355633,17.8877035 L22.0918428,17.8877035 L22.0918428,15.444071 L19.6355633,15.444071 L19.6355633,17.8877035 Z M14.7274061,27.6658872 L19.6355633,27.6658872 L19.6355633,25.2213778 L14.7274061,25.2213778 L14.7274061,27.6658872 Z M2.45481224,17.8877035 L4.90962448,17.8877035 L4.90962448,15.444071 L2.45481224,15.444071 L2.45481224,17.8877035 Z M24.5451878,15.444071 L24.5451878,13 L12.2740612,13 L12.2740612,22.7781837 L9.81778164,22.7781837 L9.81778164,13 L0,13 L0,27.6658872 L2.45481224,27.6658872 L2.45481224,32.5554906 L4.90962448,32.5554906 L4.90962448,35 L24.5451878,35 L24.5451878,32.5554906 L27,32.5554906 L27,15.444071 L24.5451878,15.444071 L24.5451878,15.444071 Z" id="Fill-118" fill="#FBD589"></path>
            </g>
            <g id="Group-40" transform="translate(5048.000000, 3635.000000)"></g>
        </g>
    </g>
</svg>