<?xml version="1.0" encoding="UTF-8" standalone="no"?>
<svg width="64px" height="64px" viewBox="0 0 64 64" version="1.1" xmlns="http://www.w3.org/2000/svg" xmlns:xlink="http://www.w3.org/1999/xlink">
    <!-- Generator: Sketch 3.7.2 (28276) - http://www.bohemiancoding.com/sketch -->
    <title>avatar12</title>
    <desc>Created with Sketch.</desc>
    <defs></defs>
    <g id="Page-1" stroke="none" stroke-width="1" fill="none" fill-rule="evenodd">
        <g id="dfasd" transform="translate(-5218.000000, -3886.000000)">
            <g id="Group-23" transform="translate(5233.000000, 3896.000000)">
                <polygon id="Fill-5" fill="#BF665D" points="16 36 19 36 19 33 16 33"></polygon>
                <polygon id="Fill-6" fill="#ECC982" points="30 20 33 20 33 17 30 17"></polygon>
                <polygon id="Fill-7" fill="#ECC982" points="11 25 16 25 16 11 11 11"></polygon>
                <polygon id="Fill-8" fill="#1A1918" points="21 20 24 20 24 17 21 17"></polygon>
                <polygon id="Fill-9" fill="#1A1918" points="2 20 5 20 5 17 2 17"></polygon>
                <path d="M22.0008768,32.5016141 L22.0008768,35.2003228 L10.999452,35.2003228 L10.999452,29.8012912 L22.0008768,29.8012912 L22.0008768,32.5016141 L22.0008768,32.5016141 Z M30.2494794,21.7003228 L30.2494794,24.4006456 L24.7494246,24.4006456 L24.7494246,27.1009684 L2.74871215,27.1009684 L2.74871215,21.7003228 L0,21.7003228 L0,35.2003228 L2.74871215,35.2003228 L2.74871215,40.5993544 L5.49857514,40.5993544 L5.49857514,43.2996772 L8.24843814,43.2996772 L8.24843814,46 L24.7494246,46 L24.7494246,43.2996772 L27.499452,43.2996772 L27.499452,40.5993544 L30.2494794,40.5993544 L30.2494794,35.2003228 L33,35.2003228 L33,19 L30.2494794,19 L30.2494794,21.7003228 L30.2494794,21.7003228 Z" id="Fill-10" fill="#ED9839"></path>
                <polyline id="Fill-11" fill="#ED9839" points="30.2494794 2.66693235 24.7494246 2.66693235 24.7494246 0 5.49857514 0 5.49857514 2.66693235 2.74871215 2.66693235 2.74871215 5.3322706 0 5.3322706 0 13.3314735 2.74871215 13.3314735 2.74871215 10.6645412 27.499452 10.6645412 27.499452 13.3314735 30.2494794 13.3314735 30.2494794 16 33 16 33 5.3322706 30.2494794 5.3322706 30.2494794 2.66693235"></polyline>
                <path d="M21.8194269,18.9992029 L24.5453063,18.9992029 L24.5453063,16.3354588 L21.8194269,16.3354588 L21.8194269,18.9992029 Z M2.72604244,18.9992029 L5.45322623,18.9992029 L5.45322623,16.3354588 L2.72604244,16.3354588 L2.72604244,18.9992029 Z M27.2726532,11 L16.364081,11 L16.364081,24.3330676 L10.9087352,24.3330676 L10.9087352,11 L2.72604244,11 L2.72604244,13.6669324 L0,13.6669324 L0,21.6661353 L2.72604244,21.6661353 L2.72604244,27 L24.5453063,27 L24.5453063,24.3330676 L30,24.3330676 L30,13.6669324 L27.2726532,13.6669324 L27.2726532,11 L27.2726532,11 Z" id="Fill-12" fill="#FBD589"></path>
                <polyline id="Fill-13" fill="#FBD589" points="16.5 30 11 30 11 35 16.5 35 16.5 32.5007474 19.2481918 32.5007474 19.2481918 35 22 35 22 30 16.5 30"></polyline>
            </g>
            <g id="Group-40" transform="translate(5048.000000, 3635.000000)"></g>
        </g>
    </g>
</svg>